<?xml version="1.0" encoding="UTF-8"?>
<svg version="1.1" xmlns="http://www.w3.org/2000/svg" width="229" height="150">
<path d="M0 0 C75.57 0 151.14 0 229 0 C229 49.5 229 99 229 150 C153.43 150 77.86 150 0 150 C0 100.5 0 51 0 0 Z " fill="#FEFEFE" transform="translate(0,0)"/>
<path d="M0 0 C0.64195312 0.57878906 1.28390625 1.15757813 1.9453125 1.75390625 C2.62851563 2.32238281 3.31171875 2.89085938 4.015625 3.4765625 C11.42051786 10.10717949 17.26615444 20.36110376 18.18359375 30.34765625 C18.49488477 42.53715718 15.15864309 51.76636826 6.9453125 60.75390625 C6.336875 61.44226563 5.7284375 62.130625 5.1015625 62.83984375 C-5.4568733 74.13390828 -19.83622573 80.47978426 -34.4921875 84.62890625 C-35.24959229 84.84434082 -36.00699707 85.05977539 -36.78735352 85.28173828 C-40.97871176 86.40408313 -44.67533983 86.98987744 -49.0546875 86.75390625 C-48.7246875 88.40390625 -48.3946875 90.05390625 -48.0546875 91.75390625 C-48.0546875 96.37390625 -48.0546875 100.99390625 -48.0546875 105.75390625 C-78.4146875 105.75390625 -108.7746875 105.75390625 -140.0546875 105.75390625 C-140.0546875 99.81390625 -140.0546875 93.87390625 -140.0546875 87.75390625 C-129.5546875 84.75390625 -129.5546875 84.75390625 -125.0546875 84.75390625 C-125.0546875 84.09390625 -125.0546875 83.43390625 -125.0546875 82.75390625 C-121.0946875 81.76390625 -121.0946875 81.76390625 -117.0546875 80.75390625 C-118.52228516 80.00947266 -118.52228516 80.00947266 -120.01953125 79.25 C-127.59154195 75.35134757 -134.64176475 71.43320076 -141.0546875 65.75390625 C-141.73917969 65.18542969 -142.42367187 64.61695312 -143.12890625 64.03125 C-150.53870393 57.38360294 -156.3862226 47.12893708 -157.29296875 37.125 C-157.58129298 25.72860552 -154.14235469 16.6571335 -147.0546875 7.75390625 C-145.99184193 6.67091195 -144.90950344 5.60655004 -143.8046875 4.56640625 C-140.93020635 1.62659598 -140.05797029 -0.32417011 -139.0546875 -4.24609375 C-137.19341344 -6.10736781 -134.55539614 -5.70727514 -132.0625 -5.96484375 C-129.85329965 -6.21235325 -129.85329965 -6.21235325 -127.0546875 -7.24609375 C-127.0546875 -7.90609375 -127.0546875 -8.56609375 -127.0546875 -9.24609375 C-86.80788725 -23.65923882 -35.58627335 -30.2415669 0 0 Z " fill="#FCFCFC" transform="translate(198.0546875,25.24609375)"/>
<path d="M0 0 C0.64195312 0.57878906 1.28390625 1.15757813 1.9453125 1.75390625 C2.62851563 2.32238281 3.31171875 2.89085938 4.015625 3.4765625 C11.42051786 10.10717949 17.26615444 20.36110376 18.18359375 30.34765625 C18.49488477 42.53715718 15.15864309 51.76636826 6.9453125 60.75390625 C6.336875 61.44226563 5.7284375 62.130625 5.1015625 62.83984375 C-5.4568733 74.13390828 -19.83622573 80.47978426 -34.4921875 84.62890625 C-35.24959229 84.84434082 -36.00699707 85.05977539 -36.78735352 85.28173828 C-40.97871176 86.40408313 -44.67533983 86.98987744 -49.0546875 86.75390625 C-48.7246875 88.40390625 -48.3946875 90.05390625 -48.0546875 91.75390625 C-48.0546875 96.37390625 -48.0546875 100.99390625 -48.0546875 105.75390625 C-78.4146875 105.75390625 -108.7746875 105.75390625 -140.0546875 105.75390625 C-140.0546875 99.81390625 -140.0546875 93.87390625 -140.0546875 87.75390625 C-129.5546875 84.75390625 -129.5546875 84.75390625 -125.0546875 84.75390625 C-125.0546875 84.09390625 -125.0546875 83.43390625 -125.0546875 82.75390625 C-121.0946875 81.76390625 -121.0946875 81.76390625 -117.0546875 80.75390625 C-118.52228516 80.00947266 -118.52228516 80.00947266 -120.01953125 79.25 C-127.59154195 75.35134757 -134.64176475 71.43320076 -141.0546875 65.75390625 C-141.73917969 65.18542969 -142.42367187 64.61695312 -143.12890625 64.03125 C-150.53870393 57.38360294 -156.3862226 47.12893708 -157.29296875 37.125 C-157.58129298 25.72860552 -154.14235469 16.6571335 -147.0546875 7.75390625 C-145.99184193 6.67091195 -144.90950344 5.60655004 -143.8046875 4.56640625 C-140.93020635 1.62659598 -140.05797029 -0.32417011 -139.0546875 -4.24609375 C-137.19341344 -6.10736781 -134.55539614 -5.70727514 -132.0625 -5.96484375 C-129.85329965 -6.21235325 -129.85329965 -6.21235325 -127.0546875 -7.24609375 C-127.0546875 -7.90609375 -127.0546875 -8.56609375 -127.0546875 -9.24609375 C-86.80788725 -23.65923882 -35.58627335 -30.2415669 0 0 Z M-124.0546875 -4.24609375 C-124.0546875 -0.94609375 -124.0546875 2.35390625 -124.0546875 5.75390625 C-125.0446875 5.75390625 -126.0346875 5.75390625 -127.0546875 5.75390625 C-127.0546875 3.44390625 -127.0546875 1.13390625 -127.0546875 -1.24609375 C-127.7146875 -1.24609375 -128.3746875 -1.24609375 -129.0546875 -1.24609375 C-129.0546875 2.05390625 -129.0546875 5.35390625 -129.0546875 8.75390625 C-129.7146875 8.75390625 -130.3746875 8.75390625 -131.0546875 8.75390625 C-131.0546875 8.09390625 -131.0546875 7.43390625 -131.0546875 6.75390625 C-134.2065292 6.24736026 -136.01378068 6.00919438 -139.0546875 6.75390625 C-146.01581409 12.16255137 -150.27371811 20.21184936 -152.0546875 28.75390625 C-153.06727145 38.06635861 -150.71645446 46.40157305 -145.2421875 54.00390625 C-144.2010852 55.27178331 -143.13871822 56.52253155 -142.0546875 57.75390625 C-141.56484375 58.3365625 -141.075 58.91921875 -140.5703125 59.51953125 C-133.02983703 67.80658845 -122.53782239 73.15698412 -112.0546875 76.75390625 C-111.80437773 74.33770802 -111.80437773 74.33770802 -112.0546875 71.75390625 C-113.0446875 71.09390625 -114.0346875 70.43390625 -115.0546875 69.75390625 C-116.2421875 66.62890625 -116.2421875 66.62890625 -117.0546875 63.75390625 C-117.7146875 63.75390625 -118.3746875 63.75390625 -119.0546875 63.75390625 C-119.0134375 62.74328125 -118.9721875 61.73265625 -118.9296875 60.69140625 C-118.9072486 56.48785186 -119.49456935 52.46997966 -120.1171875 48.31640625 C-121.13608343 41.06128913 -121.86190268 34.33609869 -118.0546875 27.75390625 C-116.38802083 26.08723958 -114.72135417 24.42057292 -113.0546875 22.75390625 C-112.3946875 21.43390625 -111.7346875 20.11390625 -111.0546875 18.75390625 C-101.8146875 18.42390625 -92.5746875 18.09390625 -83.0546875 17.75390625 C-83.0546875 18.41390625 -83.0546875 19.07390625 -83.0546875 19.75390625 C-81.8378125 19.96015625 -80.6209375 20.16640625 -79.3671875 20.37890625 C-74.51320358 21.55381049 -72.97518308 23.83209791 -70.0546875 27.75390625 C-68.5696875 28.24890625 -68.5696875 28.24890625 -67.0546875 28.75390625 C-66.7246875 29.74390625 -66.3946875 30.73390625 -66.0546875 31.75390625 C-65.0646875 31.75390625 -64.0746875 31.75390625 -63.0546875 31.75390625 C-63.36251246 33.40062037 -63.67607984 35.04626201 -63.9921875 36.69140625 C-64.25322266 38.06619141 -64.25322266 38.06619141 -64.51953125 39.46875 C-65.0546875 41.75390625 -65.0546875 41.75390625 -66.0546875 42.75390625 C-66.12727696 44.94030078 -66.13842533 47.12891014 -66.1171875 49.31640625 C-66.10816406 50.51394531 -66.09914063 51.71148437 -66.08984375 52.9453125 C-66.07824219 53.87214844 -66.06664062 54.79898438 -66.0546875 55.75390625 C-66.7146875 55.75390625 -67.3746875 55.75390625 -68.0546875 55.75390625 C-71.60253721 61.13290419 -72.76356581 65.33467294 -73.0546875 71.75390625 C-74.5396875 72.24890625 -74.5396875 72.24890625 -76.0546875 72.75390625 C-76.52512545 77.68374237 -76.52512545 77.68374237 -74.41796875 81.9609375 C-68.50765488 86.44496075 -58.25358266 83.88956133 -51.19677734 82.97827148 C-29.74916615 79.84584327 -7.98801072 72.14670184 5.9453125 54.75390625 C11.59738619 46.1300081 13.89559091 39.05974256 12.9453125 28.75390625 C10.35071287 17.81210896 3.38858177 7.68216461 -6.0546875 1.4296875 C-7.6937038 0.48791402 -9.37086205 -0.38699913 -11.0546875 -1.24609375 C-11.0546875 -0.25609375 -11.0546875 0.73390625 -11.0546875 1.75390625 C-13.6946875 1.75390625 -16.3346875 1.75390625 -19.0546875 1.75390625 C-18.7246875 2.74390625 -18.3946875 3.73390625 -18.0546875 4.75390625 C-15.0846875 4.25890625 -15.0846875 4.25890625 -12.0546875 3.75390625 C-12.3846875 4.41390625 -12.7146875 5.07390625 -13.0546875 5.75390625 C-16.5766596 5.83395107 -19.67450219 5.79396327 -23.0546875 4.75390625 C-23.0546875 2.11390625 -23.0546875 -0.52609375 -23.0546875 -3.24609375 C-22.3946875 -3.24609375 -21.7346875 -3.24609375 -21.0546875 -3.24609375 C-21.0546875 -3.90609375 -21.0546875 -4.56609375 -21.0546875 -5.24609375 C-20.3946875 -5.57609375 -19.7346875 -5.90609375 -19.0546875 -6.24609375 C-26.383274 -9.40541373 -33.58600341 -11.78633409 -41.3671875 -13.49609375 C-42.47682861 -13.74020996 -42.47682861 -13.74020996 -43.60888672 -13.98925781 C-70.60455854 -19.67446301 -99.2163487 -16.22172139 -124.0546875 -4.24609375 Z " fill="#000000" transform="translate(198.0546875,25.24609375)"/>
<path d="M0 0 C1.53333984 0.00676758 1.53333984 0.00676758 3.09765625 0.01367188 C5.60683194 0.025397 8.1158849 0.04180824 10.625 0.0625 C10.625 0.7225 10.625 1.3825 10.625 2.0625 C11.924375 1.9078125 11.924375 1.9078125 13.25 1.75 C17.90738905 2.18123973 19.31289149 3.82741727 22.625 7.0625 C23.12 8.0525 23.12 8.0525 23.625 9.0625 C25.64169827 10.19600534 25.64169827 10.19600534 27.625 11.0625 C27.625 12.0525 27.625 13.0425 27.625 14.0625 C28.615 14.0625 29.605 14.0625 30.625 14.0625 C30.48457123 15.70880328 30.33750671 17.35454179 30.1875 19 C30.10628906 19.91652344 30.02507812 20.83304688 29.94140625 21.77734375 C29.625 24.0625 29.625 24.0625 28.625 25.0625 C28.39018307 27.24542774 28.21136677 29.43453174 28.0625 31.625 C27.97871094 32.82253906 27.89492187 34.02007812 27.80859375 35.25390625 C27.71771484 36.64416016 27.71771484 36.64416016 27.625 38.0625 C26.965 38.0625 26.305 38.0625 25.625 38.0625 C25.315625 39.031875 25.00625 40.00125 24.6875 41 C23.625 44.0625 23.625 44.0625 22.625 45.0625 C22.09571924 47.37532351 21.66166285 49.69971913 21.22265625 52.03125 C21.02542969 52.7015625 20.82820313 53.371875 20.625 54.0625 C19.635 54.5575 19.635 54.5575 18.625 55.0625 C18.26893187 60.02801325 18.26893187 60.02801325 20.125 64.5 C20.62 65.015625 21.115 65.53125 21.625 66.0625 C15.31422455 66.19489389 9.40896062 65.78384639 3.1875 64.75 C2.36000244 64.61537354 1.53250488 64.48074707 0.67993164 64.34204102 C-14.69555918 61.74194082 -14.69555918 61.74194082 -18.375 58.0625 C-18.375 56.7425 -18.375 55.4225 -18.375 54.0625 C-19.014375 53.85625 -19.65375 53.65 -20.3125 53.4375 C-22.375 52.0625 -22.375 52.0625 -23.125 48.9375 C-23.2075 47.98875 -23.29 47.04 -23.375 46.0625 C-24.035 46.0625 -24.695 46.0625 -25.375 46.0625 C-25.91407293 42.41912609 -26.42786003 38.7725979 -26.9375 35.125 C-27.16469727 33.59262695 -27.16469727 33.59262695 -27.39648438 32.02929688 C-28.36875094 24.95210073 -29.1680363 18.00717985 -26.125 11.3125 C-24.06921702 8.66935045 -21.77162503 6.3976731 -19.375 4.0625 C-18.715 3.0725 -18.055 2.0825 -17.375 1.0625 C-11.78719827 -0.51980631 -5.76191634 -0.04832575 0 0 Z " fill="#858585" transform="translate(104.375,42.9375)"/>
<path d="M0 0 C19.14 0 38.28 0 58 0 C58.04010881 16.68080815 58.04010881 16.68080815 58.04882812 23.76757812 C58.05481596 28.61142059 58.06191465 33.45524422 58.07543945 38.29907227 C58.08627043 42.20235971 58.09227728 46.10562699 58.09487724 50.0089283 C58.09673111 51.50133647 58.100351 52.99374348 58.10573006 54.48614311 C58.11294331 56.56948139 58.11399083 58.65273531 58.11352539 60.73608398 C58.115746 61.92411118 58.11796661 63.11213837 58.12025452 64.33616638 C58 67 58 67 57 68 C51.93176607 68.89439422 46.89318741 69.16233394 41.75 69.3125 C40.56921875 69.34988281 39.3884375 69.38726562 38.171875 69.42578125 C35 69 35 69 32.59375 67.21484375 C30.36468007 64.11709216 30.71407636 61.71700731 31 58 C31.99 57.67 32.98 57.34 34 57 C34.03867188 56.14728516 34.03867188 56.14728516 34.078125 55.27734375 C34.50434233 49.47497597 35.79821783 45.8543149 39 41 C39.66 41 40.32 41 41 41 C40.98839844 40.07316406 40.97679687 39.14632812 40.96484375 38.19140625 C40.95582031 36.99386719 40.94679687 35.79632813 40.9375 34.5625 C40.92589844 33.36753906 40.91429687 32.17257813 40.90234375 30.94140625 C41 28 41 28 42 27 C42.3931648 25.32115762 42.74085452 23.63149955 43.0625 21.9375 C43.23910156 21.01839844 43.41570312 20.09929688 43.59765625 19.15234375 C43.73042969 18.44207031 43.86320312 17.73179688 44 17 C43.01 17 42.02 17 41 17 C40.505 15.515 40.505 15.515 40 14 C39.401875 13.71125 38.80375 13.4225 38.1875 13.125 C36 12 36 12 34.25 9.5 C31.10675838 6.00750931 28.56367216 5.83667323 24 5 C24 4.34 24 3.68 24 3 C15.42 3.33 6.84 3.66 -2 4 C-1.34 2.68 -0.68 1.36 0 0 Z " fill="#E2E2E2" transform="translate(91,40)"/>
<path d="M0 0 C0.57363281 0.10957031 1.14726563 0.21914062 1.73828125 0.33203125 C3.62808381 0.68475616 5.52042257 1.02396252 7.4140625 1.35546875 C9.89474176 1.80134247 12.36869402 2.28572533 14.8359375 2.80078125 C30.43267842 5.85380634 46.18452402 5.28563655 62 5 C63 9 63 9 63 23 C32.64 23 2.28 23 -29 23 C-29 17.06 -29 11.12 -29 5 C-28.67 5 -28.34 5 -28 5 C-28 8.96 -28 12.92 -28 17 C-22.93991361 15.52360997 -22.93991361 15.52360997 -21 12 C-15.50678613 9.75787189 -10.79065832 9.76979576 -5 11 C-4.67 11.33 -4.34 11.66 -4 12 C-1.02204553 12.07307864 1.94381197 11.99618104 4.921875 11.9375 C7.75855619 11.99509759 10.24686735 12.34740559 13 13 C12.505 10.03 12.505 10.03 12 7 C8.28400809 6.79913557 7.22791555 6.8480563 4 9 C3.505 5.535 3.505 5.535 3 2 C2.01 2 1.02 2 0 2 C0 1.34 0 0.68 0 0 Z " fill="#3B3B3B" transform="translate(87,108)"/>
<path d="M0 0 C9.57 0 19.14 0 29 0 C29 7.06735014 28.54147136 7.35039837 24 12 C23.01 12.495 23.01 12.495 22 13 C17.67620142 21.0070344 18.78447334 29.98358028 20.54296875 38.6875 C21.22900466 42.15872442 21.05987148 45.46758287 21 49 C21.66 49 22.32 49 23 49 C23.45375 50.134375 23.9075 51.26875 24.375 52.4375 C25.57095806 56.04721692 25.57095806 56.04721692 28 57 C28 58.65 28 60.3 28 62 C17.97250177 58.20250067 6.78534128 53.65458707 0 45 C-0.69000887 41.54964262 -0.58269146 38.1745942 -0.48828125 34.66796875 C-0.48120651 33.67622147 -0.47413177 32.68447418 -0.46684265 31.66267395 C-0.43891433 28.50350658 -0.3761772 25.34612918 -0.3125 22.1875 C-0.28741518 20.04234335 -0.26460234 17.89715885 -0.24414062 15.75195312 C-0.19334864 10.50006234 -0.09549142 5.25202791 0 0 Z " fill="#D6D6D6" transform="translate(58,40)"/>
<path d="M0 0 C7.01694482 1.25397873 14.01556007 2.57584088 21 4 C21 7.62031557 19.8569494 8.95460298 18 12 C17.30420546 14.19130534 17.30420546 14.19130534 17 16 C15.68 16 14.36 16 13 16 C13 16.99 13 17.98 13 19 C14.32 19 15.64 19 17 19 C17 19.99 17 20.98 17 22 C31.85 22 46.7 22 62 22 C61.505 16.06 61.505 16.06 61 10 C58.08235 8.0549 56.37462715 7.54723683 53 7 C53 6.34 53 5.68 53 5 C55.97 5 58.94 5 62 5 C63 9 63 9 63 23 C32.64 23 2.28 23 -29 23 C-29 17.06 -29 11.12 -29 5 C-28.67 5 -28.34 5 -28 5 C-28 8.96 -28 12.92 -28 17 C-22.93991361 15.52360997 -22.93991361 15.52360997 -21 12 C-15.50678613 9.75787189 -10.79065832 9.76979576 -5 11 C-4.67 11.33 -4.34 11.66 -4 12 C-1.02204553 12.07307864 1.94381197 11.99618104 4.921875 11.9375 C7.75855619 11.99509759 10.24686735 12.34740559 13 13 C12.505 10.03 12.505 10.03 12 7 C8.28400809 6.79913557 7.22791555 6.8480563 4 9 C3.505 5.535 3.505 5.535 3 2 C2.01 2 1.02 2 0 2 C0 1.34 0 0.68 0 0 Z " fill="#3D3D3D" transform="translate(87,108)"/>
<path d="M0 0 C1.53333984 0.00676758 1.53333984 0.00676758 3.09765625 0.01367188 C5.60683194 0.025397 8.1158849 0.04180824 10.625 0.0625 C10.625 0.7225 10.625 1.3825 10.625 2.0625 C11.924375 1.9078125 11.924375 1.9078125 13.25 1.75 C18.744216 2.2587237 21.4716194 5.75325715 24.9375 9.6875 C28.48869733 14.68548143 28.0935426 20.25124438 27.125 26.0625 C26.96 26.7225 26.795 27.3825 26.625 28.0625 C25.965 28.0625 25.305 28.0625 24.625 28.0625 C23.44928549 24.38839215 23.55133254 20.89320817 23.625 17.0625 C22.635 17.0625 21.645 17.0625 20.625 17.0625 C20.41875 16.44375 20.2125 15.825 20 15.1875 C18.74923547 12.8600422 18.74923547 12.8600422 16.125 11.8125 C7.93011063 10.05645228 1.07963063 11.26765843 -6.8828125 13.56005859 C-11.75123862 14.95299711 -16.33407596 15.70875094 -21.375 16.0625 C-21.354375 17.031875 -21.33375 18.00125 -21.3125 19 C-21.375 22.0625 -21.375 22.0625 -22.375 23.0625 C-22.74260731 25.39067964 -23.07741581 27.7243385 -23.375 30.0625 C-24.365 30.3925 -25.355 30.7225 -26.375 31.0625 C-26.375 28.4225 -26.375 25.7825 -26.375 23.0625 C-27.035 23.0625 -27.695 23.0625 -28.375 23.0625 C-27.82221516 14.31325023 -25.72187711 10.24663667 -19.375 4.0625 C-18.715 3.0725 -18.055 2.0825 -17.375 1.0625 C-11.78719827 -0.51980631 -5.76191634 -0.04832575 0 0 Z " fill="#333333" transform="translate(104.375,42.9375)"/>
<path d="M0 0 C0.99 0 1.98 0 3 0 C3 1.65 3 3.3 3 5 C6.3 5 9.6 5 13 5 C13 4.34 13 3.68 13 3 C15.97 2.34 18.94 1.68 22 1 C22.66 3.31 23.32 5.62 24 8 C24.66 7.67 25.32 7.34 26 7 C24.125 12.875 24.125 12.875 23 14 C22.47071924 16.31282351 22.03666285 18.63721913 21.59765625 20.96875 C21.40042969 21.6390625 21.20320313 22.309375 21 23 C20.01 23.495 20.01 23.495 19 24 C18.34 24.99 17.68 25.98 17 27 C17 25.68 17 24.36 17 23 C15.05925139 23.27617533 15.05925139 23.27617533 13 24 C12.34 24.99 11.68 25.98 11 27 C7.40549329 28.85582593 4.45170405 29.24891341 0.4375 29.1875 C-0.49191406 29.18105469 -1.42132813 29.17460938 -2.37890625 29.16796875 C-7.56574562 28.83557815 -9.38833068 27.72817479 -13 24 C-13.99 23.67 -14.98 23.34 -16 23 C-16.33 21.02 -16.66 19.04 -17 17 C-15.35 16.67 -13.7 16.34 -12 16 C-12 16.66 -12 17.32 -12 18 C-6.97054885 18.34230703 -6.97054885 18.34230703 -2.4375 16.4375 C0.75539411 14.55451117 2.49683244 15.10384086 6 16 C6 16.99 6 17.98 6 19 C7.98 19 9.96 19 12 19 C11.67 18.01 11.34 17.02 11 16 C7.99152582 14.77479736 7.99152582 14.77479736 5 14 C5.33 12.68 5.66 11.36 6 10 C4.02 10 2.04 10 0 10 C-1.4323356 7.1353288 -0.57861549 5.08594927 0 2 C0 1.34 0 0.68 0 0 Z " fill="#858585" transform="translate(104,74)"/>
<path d="M0 0 C0 0.99 0 1.98 0 3 C0.99 3 1.98 3 3 3 C3.66 4.98 4.32 6.96 5 9 C5.66 8.34 6.32 7.68 7 7 C9.5625 6.8125 9.5625 6.8125 12 7 C13 8 13 8 13 14 C7.06 14 1.12 14 -5 14 C-5 13.34 -5 12.68 -5 12 C-6.72880982 11.94550162 -8.45812712 11.90698312 -10.1875 11.875 C-11.63189453 11.84019531 -11.63189453 11.84019531 -13.10546875 11.8046875 C-16.16928966 12.01142305 -18.26601962 12.62345044 -21 14 C-21.515625 14.70125 -22.03125 15.4025 -22.5625 16.125 C-23.036875 16.74375 -23.51125 17.3625 -24 18 C-25.32 18 -26.64 18 -28 18 C-28 14.04 -28 10.08 -28 6 C-18.5 3 -18.5 3 -14 3 C-14 2.34 -14 1.68 -14 1 C-8.83955235 -0.512545 -5.34001821 -1.33500455 0 0 Z " fill="#242424" transform="translate(87,107)"/>
<path d="M0 0 C1.8828125 0.71875 1.8828125 0.71875 4.8203125 2.46875 C5.7578125 4.65625 5.7578125 4.65625 5.8203125 6.46875 C6.8103125 6.46875 7.8003125 6.46875 8.8203125 6.46875 C9.15926906 8.19682318 9.49122775 9.92626974 9.8203125 11.65625 C10.0059375 12.61917969 10.1915625 13.58210938 10.3828125 14.57421875 C10.78908862 17.2621706 10.89964822 19.75646019 10.8203125 22.46875 C10.1603125 22.46875 9.5003125 22.46875 8.8203125 22.46875 C8.59244792 20.41796875 8.36458333 18.3671875 8.13671875 16.31640625 C8.00144636 14.45734771 8.00144636 14.45734771 6.8203125 13.46875 C6.77950467 11.46916636 6.77776894 9.46829746 6.8203125 7.46875 C6.18222656 7.26378906 5.54414062 7.05882812 4.88671875 6.84765625 C4.06042969 6.57824219 3.23414063 6.30882812 2.3828125 6.03125 C1.55910156 5.76441406 0.73539063 5.49757813 -0.11328125 5.22265625 C-2.1796875 4.46875 -2.1796875 4.46875 -3.1796875 3.46875 C-10.18599518 2.97859679 -17.21733806 3.72751128 -24.1796875 4.46875 C-24.1796875 5.12875 -24.1796875 5.78875 -24.1796875 6.46875 C-25.1696875 6.96375 -25.1696875 6.96375 -26.1796875 7.46875 C-26.1796875 9.44875 -26.1796875 11.42875 -26.1796875 13.46875 C-25.2103125 13.448125 -24.2409375 13.4275 -23.2421875 13.40625 C-20.1796875 13.46875 -20.1796875 13.46875 -19.1796875 14.46875 C-19.03853589 17.13933851 -19.13721643 19.79307238 -19.1796875 22.46875 C-20.8296875 21.80875 -22.4796875 21.14875 -24.1796875 20.46875 C-24.1796875 21.12875 -24.1796875 21.78875 -24.1796875 22.46875 C-27.3671875 23.21875 -27.3671875 23.21875 -31.1796875 23.46875 C-34.1171875 21.53125 -34.1171875 21.53125 -36.1796875 19.46875 C-37.4996875 20.78875 -38.8196875 22.10875 -40.1796875 23.46875 C-40.5096875 22.47875 -40.8396875 21.48875 -41.1796875 20.46875 C-40.5196875 20.13875 -39.8596875 19.80875 -39.1796875 19.46875 C-38.80730032 17.14133011 -38.48131884 14.80639285 -38.1796875 12.46875 C-37.53498278 10.12925332 -36.8713643 7.79479215 -36.1796875 5.46875 C-35.52371582 5.32252197 -34.86774414 5.17629395 -34.19189453 5.02563477 C-31.22888132 4.36353972 -28.26678127 3.69744581 -25.3046875 3.03125 C-24.27214844 2.80115234 -23.23960938 2.57105469 -22.17578125 2.33398438 C-21.18964844 2.11162109 -20.20351562 1.88925781 -19.1875 1.66015625 C-18.27629395 1.45592041 -17.36508789 1.25168457 -16.42626953 1.04125977 C-10.70044716 -0.41788536 -6.03853149 -1.47175678 0 0 Z " fill="#6B6B6B" transform="translate(119.1796875,53.53125)"/>
<path d="M0 0 C2.7421504 2.18489247 4.01428584 3.71579052 4.4375 7.25 C2.51302498 9.17447502 -0.39188439 8.67743877 -2.9765625 8.91796875 C-5.53298206 9.24620993 -7.88573504 9.8434463 -10.375 10.5 C-16.4670112 11.82393314 -21.74120187 10.11041487 -27.5625 8.25 C-27.8925 6.27 -28.2225 4.29 -28.5625 2.25 C-27.5725 1.92 -26.5825 1.59 -25.5625 1.25 C-25.5625 0.59 -25.5625 -0.07 -25.5625 -0.75 C-6.74942855 -4.7558251 -6.74942855 -4.7558251 0 0 Z " fill="#ABABAB" transform="translate(120.5625,58.75)"/>
<path d="M0 0 C0.99 0 1.98 0 3 0 C3 1.65 3 3.3 3 5 C6.3 5 9.6 5 13 5 C13 4.34 13 3.68 13 3 C15.97 2.34 18.94 1.68 22 1 C22.66 3.31 23.32 5.62 24 8 C24.66 7.67 25.32 7.34 26 7 C24.125 12.875 24.125 12.875 23 14 C22.60851239 15.51165654 22.26027543 17.03469632 21.9375 18.5625 C21.76089844 19.38878906 21.58429688 20.21507813 21.40234375 21.06640625 C21.26957031 21.70449219 21.13679688 22.34257813 21 23 C20.34 22.01 19.68 21.02 19 20 C17.02 20.33 15.04 20.66 13 21 C13 19.35 13 17.7 13 16 C11.865625 15.87625 10.73125 15.7525 9.5625 15.625 C7.7990625 15.315625 7.7990625 15.315625 6 15 C5.67 14.34 5.34 13.68 5 13 C5.33 12.01 5.66 11.02 6 10 C4.02 10 2.04 10 0 10 C-1.4323356 7.1353288 -0.57861549 5.08594927 0 2 C0 1.34 0 0.68 0 0 Z " fill="#9F9F9F" transform="translate(104,74)"/>
<path d="M0 0 C4.21878192 -0.19622241 7.17010894 0.19769832 11 2 C11 1.34 11 0.68 11 0 C14.3 0 17.6 0 21 0 C21.05402274 2.10388569 21.09280256 4.20816714 21.125 6.3125 C21.14820313 7.48425781 21.17140625 8.65601563 21.1953125 9.86328125 C21 13 21 13 19 16 C15.875 16.1875 15.875 16.1875 13 16 C14.32 15.67 15.64 15.34 17 15 C17 14.01 17 13.02 17 12 C14.6739143 11.61936779 12.33944736 11.28730055 10 11 C9.67 11.33 9.34 11.66 9 12 C6.98035801 12.07244053 4.95832876 12.08377188 2.9375 12.0625 C1.83277344 12.05347656 0.72804687 12.04445313 -0.41015625 12.03515625 C-1.69212891 12.01775391 -1.69212891 12.01775391 -3 12 C-2.67 9.69 -2.34 7.38 -2 5 C-0.02 5 1.96 5 4 5 C4 4.01 4 3.02 4 2 C2.68 2 1.36 2 0 2 C0 1.34 0 0.68 0 0 Z " fill="#3E3E3E" transform="translate(151,20)"/>
<path d="M0 0 C1.546875 1.03125 3.09375 2.0625 4.6875 3.125 C10.87343736 7.07981151 17.26995606 10.07901114 24 13 C23.67 13.66 23.34 14.32 23 15 C20.35139573 15.59355614 17.70802678 15.74209269 15 16 C15 16.66 15 17.32 15 18 C14.04287109 18.19916016 14.04287109 18.19916016 13.06640625 18.40234375 C11.82697266 18.66724609 11.82697266 18.66724609 10.5625 18.9375 C9.73878906 19.11152344 8.91507813 19.28554687 8.06640625 19.46484375 C6.02338796 19.80752994 6.02338796 19.80752994 5 21 C3.35 21 1.7 21 0 21 C0 14.07 0 7.14 0 0 Z " fill="#C7C7C7" transform="translate(58,92)"/>
<path d="M0 0 C1.32 0 2.64 0 4 0 C4.19335938 0.69867188 4.38671875 1.39734375 4.5859375 2.1171875 C4.97652344 3.48230469 4.97652344 3.48230469 5.375 4.875 C5.63023438 5.77992187 5.88546875 6.68484375 6.1484375 7.6171875 C6.8604315 10.14569726 6.8604315 10.14569726 9 12 C2.68936891 12.13239086 -3.21621462 11.72195112 -9.4375 10.6875 C-10.26499756 10.55214844 -11.09249512 10.41679688 -11.94506836 10.27734375 C-24.71270123 8.10946819 -24.71270123 8.10946819 -29 6 C-29.66 5.01 -30.32 4.02 -31 3 C-29 1 -29 1 -26.375 0.875 C-25.59125 0.91625 -24.8075 0.9575 -24 1 C-23.34 2.32 -22.68 3.64 -22 5 C-19.60385874 5.05425226 -17.20896147 5.09379027 -14.8125 5.125 C-14.13896484 5.14175781 -13.46542969 5.15851563 -12.77148438 5.17578125 C-8.72950922 5.21521515 -5.56524539 4.96838045 -2 3 C-1.34 2.01 -0.68 1.02 0 0 Z " fill="#494949" transform="translate(117,97)"/>
<path d="M0 0 C0.33 0 0.66 0 1 0 C1.33 2.97 1.66 5.94 2 9 C4.12364481 9.22609337 4.12364481 9.22609337 5.625 7.5 C6.305625 6.7575 6.305625 6.7575 7 6 C7.7734375 6.99 7.7734375 6.99 8.5625 8 C11.79995755 10.65637543 13.92552281 10.31342132 18 10 C18 9.34 18 8.68 18 8 C19.32 8.33 20.64 8.66 22 9 C22.33 7.02 22.66 5.04 23 3 C25.14809171 6.22213757 25.29386153 7.27775401 25 11 C24 12 24 12 20.18359375 12.09765625 C18.60153318 12.09098089 17.01948841 12.07901875 15.4375 12.0625 C14.63119141 12.05798828 13.82488281 12.05347656 12.99414062 12.04882812 C10.99606244 12.03700518 8.99802217 12.01906914 7 12 C7.47759766 13.37285156 7.47759766 13.37285156 7.96484375 14.7734375 C9.06086684 18.1897208 9.53951202 21.44766413 10 25 C10.32483418 26.33542939 10.6550855 27.66961551 11 29 C11 29.66 11 30.32 11 31 C11.99 31.33 12.98 31.66 14 32 C12.35 32.66 10.7 33.32 9 34 C9 33.01 9 32.02 9 31 C8.360625 30.79375 7.72125 30.5875 7.0625 30.375 C5 29 5 29 4.25 25.875 C4.1675 24.92625 4.085 23.9775 4 23 C3.34 23 2.68 23 2 23 C0.64290496 15.26940505 -0.31918373 7.85546636 0 0 Z " fill="#7A7A7A" transform="translate(77,66)"/>
<path d="M0 0 C2.5 1.5625 2.5 1.5625 4 4 C4.25 7.75 4.25 7.75 4 11 C2.02 11.99 2.02 11.99 0 13 C0 13.66 0 14.32 0 15 C-7.35678392 15.48241206 -7.35678392 15.48241206 -10 13.5 C-11.50238217 9.74404458 -11.38567013 7.04953637 -11 3 C-8.88355448 -1.23289104 -4.17330147 -0.73893467 0 0 Z " fill="#444444" transform="translate(35,17)"/>
<path d="M0 0 C2.27057377 -0.05398987 4.54151288 -0.09278742 6.8125 -0.125 C8.07707031 -0.14820313 9.34164062 -0.17140625 10.64453125 -0.1953125 C14 0 14 0 17 2 C15.875 3.9375 15.875 3.9375 14 6 C10.8125 6.75 10.8125 6.75 8 7 C8 7.66 8 8.32 8 9 C8.99 9.33 9.98 9.66 11 10 C8.03 10 5.06 10 2 10 C1.67 10.66 1.34 11.32 1 12 C-1.32156597 12.40729228 -3.6568787 12.74438677 -6 13 C-6.99 11.68 -7.98 10.36 -9 9 C-7.8803014 7.99406757 -6.7540588 6.9954151 -5.625 6 C-4.99851562 5.443125 -4.37203125 4.88625 -3.7265625 4.3125 C-2 3 -2 3 0 3 C0 2.01 0 1.02 0 0 Z " fill="#1E1E1E" transform="translate(93,44)"/>
<path d="M0 0 C2.45840605 -0.02691685 4.91651882 -0.04679802 7.375 -0.0625 C8.07367188 -0.07087891 8.77234375 -0.07925781 9.4921875 -0.08789062 C14.7734375 -0.11328125 14.7734375 -0.11328125 17 1 C17 4.63 17 8.26 17 12 C15.68 12 14.36 12 13 12 C13 9.03 13 6.06 13 3 C12.34 3 11.68 3 11 3 C11 5.97 11 8.94 11 12 C9.35 12 7.7 12 6 12 C6 9.36 6 6.72 6 4 C5.34 4 4.68 4 4 4 C4 6.64 4 9.28 4 12 C2.68 12 1.36 12 0 12 C0 8.04 0 4.08 0 0 Z " fill="#676767" transform="translate(126,20)"/>
<path d="M0 0 C1.8828125 0.71875 1.8828125 0.71875 4.8203125 2.46875 C5.7578125 4.65625 5.7578125 4.65625 5.8203125 6.46875 C6.8103125 6.46875 7.8003125 6.46875 8.8203125 6.46875 C9.15926906 8.19682318 9.49122775 9.92626974 9.8203125 11.65625 C10.0059375 12.61917969 10.1915625 13.58210938 10.3828125 14.57421875 C10.78908862 17.2621706 10.89964822 19.75646019 10.8203125 22.46875 C10.1603125 22.46875 9.5003125 22.46875 8.8203125 22.46875 C8.59244792 20.41796875 8.36458333 18.3671875 8.13671875 16.31640625 C8.00144636 14.45734771 8.00144636 14.45734771 6.8203125 13.46875 C6.77950467 11.46916636 6.77776894 9.46829746 6.8203125 7.46875 C6.18222656 7.26378906 5.54414062 7.05882812 4.88671875 6.84765625 C4.06042969 6.57824219 3.23414063 6.30882812 2.3828125 6.03125 C1.55910156 5.76441406 0.73539063 5.49757813 -0.11328125 5.22265625 C-2.1796875 4.46875 -2.1796875 4.46875 -3.1796875 3.46875 C-10.0407229 2.91544069 -16.39816707 3.86100951 -23.1171875 5.15625 C-24.37861572 5.37897583 -24.37861572 5.37897583 -25.66552734 5.60620117 C-30.67535082 6.59593605 -30.67535082 6.59593605 -34.24609375 10.11328125 C-34.70822266 11.27923828 -34.70822266 11.27923828 -35.1796875 12.46875 C-35.8396875 12.13875 -36.4996875 11.80875 -37.1796875 11.46875 C-36.8496875 9.48875 -36.5196875 7.50875 -36.1796875 5.46875 C-35.52371582 5.32252197 -34.86774414 5.17629395 -34.19189453 5.02563477 C-31.22888132 4.36353972 -28.26678127 3.69744581 -25.3046875 3.03125 C-24.27214844 2.80115234 -23.23960938 2.57105469 -22.17578125 2.33398438 C-21.18964844 2.11162109 -20.20351562 1.88925781 -19.1875 1.66015625 C-18.27629395 1.45592041 -17.36508789 1.25168457 -16.42626953 1.04125977 C-10.70044716 -0.41788536 -6.03853149 -1.47175678 0 0 Z " fill="#595959" transform="translate(119.1796875,53.53125)"/>
<path d="M0 0 C0.33 0 0.66 0 1 0 C1 5.61 1 11.22 1 17 C15.19 17 29.38 17 44 17 C44 16.34 44 15.68 44 15 C44.66 15 45.32 15 46 15 C46 15.66 46 16.32 46 17 C60.85 17 75.7 17 91 17 C90.505 11.06 90.505 11.06 90 5 C87.08235 3.0549 85.37462715 2.54723683 82 2 C82 1.34 82 0.68 82 0 C84.97 0 87.94 0 91 0 C92 4 92 4 92 18 C61.64 18 31.28 18 0 18 C0 12.06 0 6.12 0 0 Z " fill="#6D6D6D" transform="translate(58,113)"/>
<path d="M0 0 C3.91555309 -0.17797969 6.72551348 -0.27549064 10 2 C10.609375 4.1640625 10.609375 4.1640625 10.75 6.625 C10.80671875 7.44226563 10.8634375 8.25953125 10.921875 9.1015625 C10.96054688 10.04128906 10.96054688 10.04128906 11 11 C8.23547967 12.38226016 5.9538637 12.09525387 2.875 12.0625 C1.77929688 12.05347656 0.68359375 12.04445313 -0.4453125 12.03515625 C-1.70988281 12.01775391 -1.70988281 12.01775391 -3 12 C-2.67 9.69 -2.34 7.38 -2 5 C-0.02 5 1.96 5 4 5 C4 4.01 4 3.02 4 2 C2.68 2 1.36 2 0 2 C0 1.34 0 0.68 0 0 Z " fill="#8E8E8E" transform="translate(151,20)"/>
<path d="M0 0 C15.20491803 0.86885246 15.20491803 0.86885246 20 3 C23.12394018 7.61799853 22.38059809 13.71641145 21.5 19 C21.335 19.66 21.17 20.32 21 21 C20.34 21 19.68 21 19 21 C17.82428549 17.32589215 17.92633254 13.83070817 18 10 C17.01 10 16.02 10 15 10 C14.79375 9.38125 14.5875 8.7625 14.375 8.125 C12.45224112 5.15346355 10.33405473 4.86975341 7 4 C7 3.34 7 2.68 7 2 C4.69 2 2.38 2 0 2 C0 1.34 0 0.68 0 0 Z " fill="#1F1F1F" transform="translate(110,50)"/>
<path d="M0 0 C3.63 0 7.26 0 11 0 C11 1.32 11 2.64 11 4 C12.98 4.66 14.96 5.32 17 6 C17 6.99 17 7.98 17 9 C15.02 9 13.04 9 11 9 C11 8.01 11 7.02 11 6 C9.58249437 6.11509661 8.16598831 6.24253658 6.75 6.375 C5.96109375 6.44460937 5.1721875 6.51421875 4.359375 6.5859375 C1.96708009 6.88990044 1.96708009 6.88990044 -0.125 8.0625 C-2.69747041 9.3487352 -4.2992139 8.75021836 -7 8 C-6.67 7.01 -6.34 6.02 -6 5 C-4.02 4.67 -2.04 4.34 0 4 C0 2.68 0 1.36 0 0 Z " fill="#8A8A8A" transform="translate(99,84)"/>
<path d="M0 0 C1.27875 -0.061875 2.5575 -0.12375 3.875 -0.1875 C4.95394531 -0.23970703 4.95394531 -0.23970703 6.0546875 -0.29296875 C6.69664063 -0.19628906 7.33859375 -0.09960938 8 0 C10.80163026 4.2024454 10.14489712 7.00104935 10 12 C6.37 12 2.74 12 -1 12 C-1.33 10.02 -1.66 8.04 -2 6 C0.70879335 4.64560332 3.00933268 4.93498549 6 5 C6 4.01 6 3.02 6 2 C4.02 2.33 2.04 2.66 0 3 C0 2.01 0 1.02 0 0 Z " fill="#3B3B3B" transform="translate(94,20)"/>
<path d="M0 0 C5.53657294 -0.42589023 9.89665983 1.094753 15 3 C15.042721 4.66611905 15.04063832 6.33382885 15 8 C14 9 14 9 10.83984375 9.09765625 C8.90818359 9.08025391 8.90818359 9.08025391 6.9375 9.0625 C5.64714844 9.05347656 4.35679688 9.04445313 3.02734375 9.03515625 C2.02832031 9.02355469 1.02929688 9.01195313 0 9 C0 7.68 0 6.36 0 5 C1.65 4.67 3.3 4.34 5 4 C3.35 3.67 1.7 3.34 0 3 C0 2.01 0 1.02 0 0 Z " fill="#A0A0A0" transform="translate(101,92)"/>
<path d="M0 0 C0 2.64 0 5.28 0 8 C-5.21153619 11.25721012 -8.18912837 11.28036155 -14 10 C-14.33 9.34 -14.66 8.68 -15 8 C-14.01 7.67 -13.02 7.34 -12 7 C-12.33 5.35 -12.66 3.7 -13 2 C-10.32838266 1.10946089 -8.15237539 0.722475 -5.375 0.4375 C-4.18003906 0.31181641 -4.18003906 0.31181641 -2.9609375 0.18359375 C-1.97636868 0.091413 -0.98887464 0 0 0 Z " fill="#BABABA" transform="translate(124,79)"/>
<path d="M0 0 C1.46015291 0.28241641 2.91809793 0.57626614 4.375 0.875 C5.18710938 1.03742188 5.99921875 1.19984375 6.8359375 1.3671875 C9 2 9 2 11 4 C11.125 7.625 11.125 7.625 11 11 C10.01 11.495 10.01 11.495 9 12 C9 11.34 9 10.68 9 10 C8.113125 9.87625 7.22625 9.7525 6.3125 9.625 C3.29612498 9.05587264 0.79673946 8.23385564 -2 7 C-2 6.34 -2 5.68 -2 5 C-3.32 5.33 -4.64 5.66 -6 6 C-6.33 5.01 -6.66 4.02 -7 3 C-4.03 3.495 -4.03 3.495 -1 4 C-0.67 2.68 -0.34 1.36 0 0 Z " fill="#282828" transform="translate(138,114)"/>
<path d="M0 0 C1.60875 -0.020625 3.2175 -0.04125 4.875 -0.0625 C5.77992187 -0.07410156 6.68484375 -0.08570312 7.6171875 -0.09765625 C10 0 10 0 12 1 C12 4.63 12 8.26 12 12 C10.68 12 9.36 12 8 12 C8 8.7 8 5.4 8 2 C7.01 2.33 6.02 2.66 5 3 C4.67 5.97 4.34 8.94 4 12 C2.68 12 1.36 12 0 12 C0 8.04 0 4.08 0 0 Z " fill="#414141" transform="translate(79,20)"/>
<path d="M0 0 C2.97 0.33 5.94 0.66 9 1 C9.33 2.32 9.66 3.64 10 5 C13.48797488 6.79271391 13.48797488 6.79271391 17 8 C17 7.34 17 6.68 17 6 C17.66 6 18.32 6 19 6 C19.33 6.99 19.66 7.98 20 9 C19.01 9 18.02 9 17 9 C17 9.66 17 10.32 17 11 C13.7 11 10.4 11 7 11 C7 9.35 7 7.7 7 6 C6.01 6 5.02 6 4 6 C4.185625 6.9075 4.37125 7.815 4.5625 8.75 C4.95734621 11.68314324 4.94691572 13.2644657 4 16 C3.01 15.67 2.02 15.34 1 15 C1.33 14.34 1.66 13.68 2 13 C2.12114921 11.35744209 2.17540767 9.70947522 2.1875 8.0625 C2.20167969 7.18722656 2.21585937 6.31195313 2.23046875 5.41015625 C2.16663349 2.73755665 2.16663349 2.73755665 0 0 Z " fill="#9C9C9C" transform="translate(100,68)"/>
<path d="M0 0 C4.14536674 0.4710644 6.9919792 0.9919792 10 4 C10 4.99 10 5.98 10 7 C7.36 7 4.72 7 2 7 C2.33 7.66 2.66 8.32 3 9 C4.98 9 6.96 9 9 9 C8.67 9.99 8.34 10.98 8 12 C4.05272412 12.17942163 1.4019487 12.09350689 -2 10 C-2 7.36 -2 4.72 -2 2 C-1.34 2 -0.68 2 0 2 C0 1.34 0 0.68 0 0 Z " fill="#353535" transform="translate(177,20)"/>
<path d="M0 0 C2.12534659 0.14069196 4.25027529 0.28770921 6.375 0.4375 C8.15003906 0.55931641 8.15003906 0.55931641 9.9609375 0.68359375 C13 1 13 1 15 2 C15 4.31 15 6.62 15 9 C12.525 8.01 12.525 8.01 10 7 C10 7.66 10 8.32 10 9 C7.69 9.33 5.38 9.66 3 10 C2.67 8.35 2.34 6.7 2 5 C3.98 4.67 5.96 4.34 8 4 C5.36 3.67 2.72 3.34 0 3 C0 2.01 0 1.02 0 0 Z " fill="#535353" transform="translate(85,67)"/>
<path d="M0 0 C3.95819611 -0.08678303 7.91614934 -0.14031733 11.875 -0.1875 C13.00292969 -0.21263672 14.13085938 -0.23777344 15.29296875 -0.26367188 C16.36933594 -0.27333984 17.44570312 -0.28300781 18.5546875 -0.29296875 C20.04718018 -0.31653442 20.04718018 -0.31653442 21.56982422 -0.34057617 C22.37178223 -0.22818604 23.17374023 -0.1157959 24 0 C24.66 0.99 25.32 1.98 26 3 C29.06556598 3.73343428 29.06556598 3.73343428 32 4 C32 4.66 32 5.32 32 6 C29.36 5.67 26.72 5.34 24 5 C24 4.34 24 3.68 24 3 C15.42 3.33 6.84 3.66 -2 4 C-1.34 2.68 -0.68 1.36 0 0 Z " fill="#BABABA" transform="translate(91,40)"/>
<path d="M0 0 C5.28 0.99 10.56 1.98 16 3 C16 6.62031557 14.8569494 7.95460298 13 11 C12.30420546 13.19130534 12.30420546 13.19130534 12 15 C11.34 15 10.68 15 10 15 C9.93683594 14.31292969 9.87367187 13.62585938 9.80859375 12.91796875 C9.32618456 7.69620121 9.32618456 7.69620121 6.34375 3.73828125 C4.5970525 3.0617939 2.79856326 2.5232184 1 2 C0.67 1.34 0.34 0.68 0 0 Z " fill="#808080" transform="translate(92,109)"/>
<path d="M0 0 C-0.33 2.64 -0.66 5.28 -1 8 C-8.875 7.125 -8.875 7.125 -10 6 C-10.04080783 4.00041636 -10.04254356 1.99954746 -10 0 C-6.30458414 -0.95024979 -3.69541586 -0.95024979 0 0 Z " fill="#A4A4A4" transform="translate(97,80)"/>
<path d="M0 0 C0.89203125 0.00902344 1.7840625 0.01804687 2.703125 0.02734375 C3.37859375 0.03894531 4.0540625 0.05054687 4.75 0.0625 C4.75 0.7225 4.75 1.3825 4.75 2.0625 C3.615625 2.18625 2.48125 2.31 1.3125 2.4375 C-0.4509375 2.746875 -0.4509375 2.746875 -2.25 3.0625 C-2.58 3.7225 -2.91 4.3825 -3.25 5.0625 C-0.94 5.0625 1.37 5.0625 3.75 5.0625 C3.75 6.0525 3.75 7.0425 3.75 8.0625 C2.76 8.0625 1.77 8.0625 0.75 8.0625 C0.75 7.4025 0.75 6.7425 0.75 6.0625 C0.09 6.0625 -0.57 6.0625 -1.25 6.0625 C-1.25 6.7225 -1.25 7.3825 -1.25 8.0625 C-4.17879371 7.43490135 -6.61095629 6.47627341 -9.25 5.0625 C-9.25 3.7425 -9.25 2.4225 -9.25 1.0625 C-6.09493858 0.12630187 -3.28413498 -0.0432123 0 0 Z " fill="#555555" transform="translate(118.25,67.9375)"/>
<path d="M0 0 C1.32 0 2.64 0 4 0 C4 5.61 4 11.22 4 17 C2.68 17 1.36 17 0 17 C0 11.39 0 5.78 0 0 Z " fill="#404040" transform="translate(105,15)"/>
<path d="M0 0 C7.26 0 14.52 0 22 0 C22 0.66 22 1.32 22 2 C23.423125 1.938125 23.423125 1.938125 24.875 1.875 C28 2 28 2 30 4 C28.68 4 27.36 4 26 4 C25.67 4.99 25.34 5.98 25 7 C22.36 6.67 19.72 6.34 17 6 C17.33 4.68 17.66 3.36 18 2 C12.06 1.67 6.12 1.34 0 1 C0 0.67 0 0.34 0 0 Z " fill="#434343" transform="translate(93,43)"/>
<path d="M0 0 C4.875 0.875 4.875 0.875 6 2 C6.04092937 4.33297433 6.04241723 6.66705225 6 9 C4.0085944 9.38133299 2.00720923 9.71325582 0 10 C-0.33 9.67 -0.66 9.34 -1 9 C-0.91062197 7.47480724 -0.75462854 5.95318071 -0.5625 4.4375 C-0.46066406 3.61121094 -0.35882812 2.78492188 -0.25390625 1.93359375 C-0.17011719 1.29550781 -0.08632813 0.65742188 0 0 Z " fill="#ECECEC" transform="translate(29,19)"/>
<path d="M0 0 C0 0.99 0 1.98 0 3 C1.98 3 3.96 3 6 3 C6.33 2.01 6.66 1.02 7 0 C7 1.65 7 3.3 7 5 C9.97065509 4.65772428 9.97065509 4.65772428 13 4 C13.33 3.34 13.66 2.68 14 2 C14.26218749 5.14624993 14.24754367 6.61837017 12.5 9.3125 C12.005 9.869375 11.51 10.42625 11 11 C11 9.68 11 8.36 11 7 C9.35 7.33 7.7 7.66 6 8 C5.67 7.01 5.34 6.02 5 5 C1.97717357 3.96452953 1.97717357 3.96452953 -1.5625 3.3125 C-2.76003906 3.06113281 -3.95757812 2.80976562 -5.19140625 2.55078125 C-6.11824219 2.36902344 -7.04507813 2.18726562 -8 2 C-8 1.34 -8 0.68 -8 0 C-5.13822943 -1.43088528 -3.06624227 -0.59991697 0 0 Z " fill="#919191" transform="translate(110,90)"/>
<path d="M0 0 C0.66 0 1.32 0 2 0 C4.91380589 5.82761178 4.55232315 11.79070742 3 18 C2.34 18 1.68 18 1 18 C-0.17571451 14.32589215 -0.07366746 10.83070817 0 7 C-0.99 6.67 -1.98 6.34 -3 6 C-1.68 5.67 -0.36 5.34 1 5 C1 4.34 1 3.68 1 3 C0.34 2.67 -0.32 2.34 -1 2 C-0.67 1.34 -0.34 0.68 0 0 Z " fill="#333333" transform="translate(128,53)"/>
<path d="M0 0 C0.33 0.66 0.66 1.32 1 2 C2.98 2 4.96 2 7 2 C6.67 2.66 6.34 3.32 6 4 C4.35 4 2.7 4 1 4 C1 5.32 1 6.64 1 8 C4.63 8 8.26 8 12 8 C10 10 10 10 7.3984375 10.1953125 C6.40070313 10.17210938 5.40296875 10.14890625 4.375 10.125 C2.87066406 10.09792969 2.87066406 10.09792969 1.3359375 10.0703125 C0.56507812 10.04710938 -0.20578125 10.02390625 -1 10 C-1 9.34 -1 8.68 -1 8 C-1.99 8 -2.98 8 -4 8 C-3.67 6.68 -3.34 5.36 -3 4 C-2.01 4 -1.02 4 0 4 C0 2.68 0 1.36 0 0 Z " fill="#939393" transform="translate(100,93)"/>
<path d="M0 0 C2.64 0 5.28 0 8 0 C8 0.66 8 1.32 8 2 C7.01 2.33 6.02 2.66 5 3 C4.67 5.97 4.34 8.94 4 12 C2.68 12 1.36 12 0 12 C0 8.04 0 4.08 0 0 Z " fill="#3E3E3E" transform="translate(40,20)"/>
<path d="M0 0 C2.90954979 3.17405432 3.62905133 6.07705421 4.375 10.1953125 C4.93180505 12.39127115 4.93180505 12.39127115 8 14 C8 14.66 8 15.32 8 16 C8.99 16.33 9.98 16.66 11 17 C9.35 17.66 7.7 18.32 6 19 C6 18.01 6 17.02 6 16 C5.38125 15.79375 4.7625 15.5875 4.125 15.375 C1.03006651 13.37239598 0.79078317 11.55852428 0 8 C-0.14529282 5.30723981 -0.09313079 2.70079299 0 0 Z " fill="#6F6F6F" transform="translate(80,81)"/>
<path d="M0 0 C6.15234375 -0.09765625 6.15234375 -0.09765625 8 0 C9 1 9 1 9.09765625 3.06640625 C9.08605469 3.89011719 9.07445312 4.71382812 9.0625 5.5625 C9.05347656 6.38878906 9.04445312 7.21507812 9.03515625 8.06640625 C9.02355469 8.70449219 9.01195312 9.34257812 9 10 C8.34 10 7.68 10 7 10 C7 7.03 7 4.06 7 1 C5.68 1 4.36 1 3 1 C3 3.97 3 6.94 3 10 C2.01 10 1.02 10 0 10 C0 6.7 0 3.4 0 0 Z " fill="#111111" transform="translate(133,21)"/>
<path d="M0 0 C6.625 -0.25 6.625 -0.25 10 2 C5.80325676 4.63795289 1.69085728 6.43638091 -3 8 C-1.125 2.25 -1.125 2.25 0 0 Z " fill="#262626" transform="translate(110,113)"/>
<path d="M0 0 C0.33 0.66 0.66 1.32 1 2 C2.953125 1.93489583 4.90625 1.86979167 6.859375 1.8046875 C9 2 9 2 13 4 C9.7 4 6.4 4 3 4 C2.67 4.99 2.34 5.98 2 7 C1.01 6.34 0.02 5.68 -1 5 C-2.32 6.32 -3.64 7.64 -5 9 C-5.33 8.01 -5.66 7.02 -6 6 C-5.34 5.67 -4.68 5.34 -4 5 C-3.67 4.01 -3.34 3.02 -3 2 C-2.01 2 -1.02 2 0 2 C0 1.34 0 0.68 0 0 Z " fill="#676767" transform="translate(84,68)"/>
<path d="M0 0 C0.99 0.495 0.99 0.495 2 1 C1.34 1.66 0.68 2.32 0 3 C0 2.01 0 1.02 0 0 Z M-12 1 C-10.9790625 1.2165625 -10.9790625 1.2165625 -9.9375 1.4375 C-6.63726918 2.06945909 -3.32855574 2.54313941 0 3 C-0.33 3.66 -0.66 4.32 -1 5 C-4.0625 5.625 -4.0625 5.625 -7 6 C-7 6.66 -7 7.32 -7 8 C-6.01 8.33 -5.02 8.66 -4 9 C-5.65 9 -7.3 9 -9 9 C-8.67 7.68 -8.34 6.36 -8 5 C-9.32 5 -10.64 5 -12 5 C-12 3.68 -12 2.36 -12 1 Z " fill="#2A2A2A" transform="translate(108,45)"/>
<path d="M0 0 C0.99 0.495 0.99 0.495 2 1 C2 1.99 2 2.98 2 4 C2.99 4 3.98 4 5 4 C4.85957123 5.64630328 4.71250671 7.29204179 4.5625 8.9375 C4.48128906 9.85402344 4.40007812 10.77054688 4.31640625 11.71484375 C4 14 4 14 3 15 C2.76518307 17.18292774 2.58636677 19.37203174 2.4375 21.5625 C2.35371094 22.76003906 2.26992187 23.95757812 2.18359375 25.19140625 C2.12300781 26.11824219 2.06242188 27.04507813 2 28 C1.34 28 0.68 28 0 28 C0.03552979 27.3294458 0.07105957 26.6588916 0.10766602 25.96801758 C0.26571836 22.91647264 0.41420082 19.86453383 0.5625 16.8125 C0.61857422 15.75740234 0.67464844 14.70230469 0.73242188 13.61523438 C0.78076172 12.59365234 0.82910156 11.57207031 0.87890625 10.51953125 C0.9260376 9.58214111 0.97316895 8.64475098 1.02172852 7.67895508 C0.99989432 4.98697068 0.61586406 2.61483024 0 0 Z " fill="#ACACAC" transform="translate(130,53)"/>
<path d="M0 0 C1.98 0.99 1.98 0.99 4 2 C4 2.99 4 3.98 4 5 C4.99 5 5.98 5 7 5 C7.33895656 6.72807318 7.67091525 8.45751974 8 10.1875 C8.185625 11.15042969 8.37125 12.11335938 8.5625 13.10546875 C8.96877612 15.7934206 9.07933572 18.28771019 9 21 C8.34 21 7.68 21 7 21 C6.77213542 18.94921875 6.54427083 16.8984375 6.31640625 14.84765625 C6.18113386 12.98859771 6.18113386 12.98859771 5 12 C4.95919217 10.00041636 4.95745644 7.99954746 5 6 C2.525 5.01 2.525 5.01 0 4 C0 2.68 0 1.36 0 0 Z " fill="#4C4C4C" transform="translate(121,55)"/>
<path d="M0 0 C-2.87920084 1.22147914 -5.48615988 2.10234945 -8.5625 2.75 C-12.80499813 4.29272659 -13.88432352 6.10715528 -16 10 C-18 7 -18 7 -17.625 4.8125 C-17.41875 4.214375 -17.2125 3.61625 -17 3 C-16.34 3 -15.68 3 -15 3 C-15 2.34 -15 1.68 -15 1 C-13.25215171 0.63536268 -11.50159498 0.2836922 -9.75 -0.0625 C-8.28820312 -0.35833984 -8.28820312 -0.35833984 -6.796875 -0.66015625 C-4.131881 -0.98397535 -2.51128277 -0.85503199 0 0 Z " fill="#8E8E8E" transform="translate(110,57)"/>
<path d="M0 0 C1.32 0 2.64 0 4 0 C3.46930939 3.82097239 2.50298434 6.06171403 0 9 C-2.31 8.67 -4.62 8.34 -7 8 C-6.67 7.01 -6.34 6.02 -6 5 C-4.02 4.67 -2.04 4.34 0 4 C0 2.68 0 1.36 0 0 Z " fill="#757575" transform="translate(99,84)"/>
<path d="M0 0 C3.16717283 1.58358642 4.73268318 2.45263699 6.3125 5.6875 C6.539375 6.450625 6.76625 7.21375 7 8 C6 9 6 9 2.4375 9.0625 C1.303125 9.041875 0.16875 9.02125 -1 9 C-0.67 8.01 -0.34 7.02 0 6 C0.03920815 4.00038436 0.04443347 1.99950636 0 0 Z " fill="#969696" transform="translate(118,58)"/>
<path d="M0 0 C3.125 -0.1875 3.125 -0.1875 6 0 C6 0.99 6 1.98 6 3 C5.21625 3.2475 4.4325 3.495 3.625 3.75 C0.67682892 5.15389099 0.0975223 6.00675737 -1 9 C-1.99 8.67 -2.98 8.34 -4 8 C-2.87548273 5.0280615 -1.77706209 2.66559313 0 0 Z " fill="#282828" transform="translate(87,44)"/>
<path d="M0 0 C0.99 0.33 1.98 0.66 3 1 C3 3.64 3 6.28 3 9 C-0.3 9 -3.6 9 -7 9 C-7.33 7.68 -7.66 6.36 -8 5 C-7.01 4.67 -6.02 4.34 -5 4 C-5 5.32 -5 6.64 -5 8 C-3.68 7.67 -2.36 7.34 -1 7 C-0.67 4.69 -0.34 2.38 0 0 Z " fill="#191919" transform="translate(156,22)"/>
<path d="M0 0 C2.25 -0.3125 2.25 -0.3125 5 0 C7.3125 2.5 7.3125 2.5 9 5 C5.69653363 6.10115546 4.40145589 5.8854171 1.0625 5.1875 C0.20785156 5.01605469 -0.64679688 4.84460937 -1.52734375 4.66796875 C-3.89873501 4.02735594 -5.85368826 3.18022246 -8 2 C-5.69 2 -3.38 2 -1 2 C-0.67 1.34 -0.34 0.68 0 0 Z " fill="#383838" transform="translate(119,47)"/>
<path d="M0 0 C1.65 0 3.3 0 5 0 C5.08082094 1.95766281 5.13910778 3.91626728 5.1875 5.875 C5.22230469 6.96554688 5.25710937 8.05609375 5.29296875 9.1796875 C5.19628906 10.11039063 5.09960938 11.04109375 5 12 C4.01 12.66 3.02 13.32 2 14 C1.01569664 9.93974866 1 6.16370811 1 2 C0.67 1.34 0.34 0.68 0 0 Z " fill="#141414" transform="translate(167,21)"/>
<path d="M0 0 C0.99 0 1.98 0 3 0 C3 4.62 3 9.24 3 14 C2.01 14 1.02 14 0 14 C0 9.38 0 4.76 0 0 Z " fill="#161616" transform="translate(120,17)"/>
<path d="M0 0 C0.99 0 1.98 0 3 0 C3.28875 0.94875 3.5775 1.8975 3.875 2.875 C4.76825109 6.05211578 4.76825109 6.05211578 7 8 C5.54207116 8.05399736 4.08357288 8.09279177 2.625 8.125 C1.81289062 8.14820312 1.00078125 8.17140625 0.1640625 8.1953125 C-2 8 -2 8 -4 6 C-2.68 5.67 -1.36 5.34 0 5 C0 3.35 0 1.7 0 0 Z " fill="#434343" transform="translate(119,101)"/>
<path d="M0 0 C0.33 0 0.66 0 1 0 C1.05391993 1.79133978 1.09275571 3.58313899 1.125 5.375 C1.14820312 6.37273438 1.17140625 7.37046875 1.1953125 8.3984375 C1 11 1 11 -1 13 C-4.625 13.125 -4.625 13.125 -8 13 C-8.33 11.68 -8.66 10.36 -9 9 C-8.21625 9.020625 -7.4325 9.04125 -6.625 9.0625 C-4.01885039 9.18684063 -4.01885039 9.18684063 -2 8 C-2 8.66 -2 9.32 -2 10 C-1.34 10 -0.68 10 0 10 C0 6.7 0 3.4 0 0 Z " fill="#9A9A9A" transform="translate(69,24)"/>
<path d="M0 0 C2.97 0 5.94 0 9 0 C9.99510727 3.98042908 10.10032114 7.1653166 10.0625 11.25 C10.05347656 12.51328125 10.04445312 13.7765625 10.03515625 15.078125 C10.02355469 16.04234375 10.01195312 17.0065625 10 18 C9.67 18 9.34 18 9 18 C8.96261719 17.08476562 8.92523438 16.16953125 8.88671875 15.2265625 C8.82097656 14.03804687 8.75523437 12.84953125 8.6875 11.625 C8.60048828 9.84996094 8.60048828 9.84996094 8.51171875 8.0390625 C8.34285156 7.03617187 8.17398438 6.03328125 8 5 C5.08235 3.0549 3.37462715 2.54723683 0 2 C0 1.34 0 0.68 0 0 Z " fill="#B5B5B5" transform="translate(140,113)"/>
<path d="M0 0 C0 1.32 0 2.64 0 4 C-3.64418341 6.42945561 -4.92923364 6.0828781 -9.1875 5.625 C-10.27417969 5.51414062 -11.36085938 5.40328125 -12.48046875 5.2890625 C-13.31191406 5.19367188 -14.14335938 5.09828125 -15 5 C-15 4.67 -15 4.34 -15 4 C-11.7 3.67 -8.4 3.34 -5 3 C-5 2.34 -5 1.68 -5 1 C-2 0 -2 0 0 0 Z " fill="#878787" transform="translate(118,102)"/>
<path d="M0 0 C0.99 0.33 1.98 0.66 3 1 C3 5.29 3 9.58 3 14 C2.01 14.33 1.02 14.66 0 15 C0 10 0 5 0 0 Z " fill="#343434" transform="translate(78,59)"/>
<path d="M0 0 C1.98 0 3.96 0 6 0 C6 0.33 6 0.66 6 1 C4.35 1 2.7 1 1 1 C1.33 2.98 1.66 4.96 2 7 C3.98 7.66 5.96 8.32 8 9 C7.67 9.66 7.34 10.32 7 11 C4.67843403 11.40729228 2.3431213 11.74438677 0 12 C0 8.04 0 4.08 0 0 Z " fill="#909090" transform="translate(86,79)"/>
<path d="M0 0 C0.99 0.33 1.98 0.66 3 1 C2.01 1.495 2.01 1.495 1 2 C1 3.98 1 5.96 1 8 C2.98 8 4.96 8 7 8 C7.33 8.66 7.66 9.32 8 10 C2.28758534 9.61271765 -0.73688282 9.12989477 -5 5 C-3.35 3.35 -1.7 1.7 0 0 Z " fill="#787878" transform="translate(92,59)"/>
<path d="M0 0 C2.0625 0.4375 2.0625 0.4375 4 1 C4 3.31 4 5.62 4 8 C2.35 7.67 0.7 7.34 -1 7 C-1.04254356 5.00045254 -1.04080783 2.99958364 -1 1 C-0.67 0.67 -0.34 0.34 0 0 Z " fill="#C0C0C0" transform="translate(165,22)"/>
<path d="M0 0 C0.99 0 1.98 0 3 0 C3 1.65 3 3.3 3 5 C3.99 5.33 4.98 5.66 6 6 C5.67 6.99 5.34 7.98 5 9 C3.35 9.33 1.7 9.66 0 10 C-1.4323356 7.1353288 -0.57861549 5.08594927 0 2 C0 1.34 0 0.68 0 0 Z " fill="#ADADAD" transform="translate(104,74)"/>
<path d="M0 0 C1.31677734 0.00966797 1.31677734 0.00966797 2.66015625 0.01953125 C4.9375 0.1875 4.9375 0.1875 6.9375 1.1875 C6.9375 2.5075 6.9375 3.8275 6.9375 5.1875 C6.31875 4.878125 5.7 4.56875 5.0625 4.25 C0.74947706 2.7835722 -3.5384996 2.52130974 -8.0625 2.1875 C-4.79122414 0.00664943 -3.78873277 -0.06137859 0 0 Z " fill="#6B6B6B" transform="translate(114.0625,53.8125)"/>
<path d="M0 0 C0.33 0 0.66 0 1 0 C1.05398987 2.27057377 1.09278742 4.54151288 1.125 6.8125 C1.14820313 8.07707031 1.17140625 9.34164063 1.1953125 10.64453125 C1 14 1 14 -1 17 C-2.9453125 17.29296875 -2.9453125 17.29296875 -5.125 17.1875 C-6.40375 17.125625 -7.6825 17.06375 -9 17 C-9.33 15.68 -9.66 14.36 -10 13 C-4.25 13.75 -4.25 13.75 -2 16 C-0.89485234 12.68455701 -0.67892369 9.79589889 -0.4375 6.3125 C-0.35371094 5.13300781 -0.26992187 3.95351563 -0.18359375 2.73828125 C-0.12300781 1.83464844 -0.06242188 0.93101563 0 0 Z " fill="#B0B0B0" transform="translate(172,20)"/>
<path d="M0 0 C2.97 0.495 2.97 0.495 6 1 C6 2.32 6 3.64 6 5 C4.35 5 2.7 5 1 5 C1 4.34 1 3.68 1 3 C0.34 3 -0.32 3 -1 3 C-0.67 5.31 -0.34 7.62 0 10 C-0.66 10 -1.32 10 -2 10 C-2 7.36 -2 4.72 -2 2 C-1.34 2 -0.68 2 0 2 C0 1.34 0 0.68 0 0 Z " fill="#898989" transform="translate(177,20)"/>
<path d="M0 0 C2.64 0 5.28 0 8 0 C8.33 1.32 8.66 2.64 9 4 C6.03 4 3.06 4 0 4 C0 2.68 0 1.36 0 0 Z " fill="#B5B5B5" transform="translate(101,97)"/>
<path d="M0 0 C0 2.64 0 5.28 0 8 C-5.23420787 11.27137992 -8.16605611 11.10643764 -14 10 C-11.50557135 8.56090655 -9.84722957 7.98441118 -6.9375 7.6875 C-3.78163699 7.28518828 -3.78163699 7.28518828 -2.125 4.4375 C-1.75375 3.633125 -1.3825 2.82875 -1 2 C-1.66 1.67 -2.32 1.34 -3 1 C-1 0 -1 0 0 0 Z " fill="#AEAEAE" transform="translate(124,79)"/>
<path d="M0 0 C1.03125 0.00322266 2.0625 0.00644531 3.125 0.00976562 C4.74535156 0.02233398 4.74535156 0.02233398 6.3984375 0.03515625 C8.03039062 0.04192383 8.03039062 0.04192383 9.6953125 0.04882812 C12.38807539 0.06063849 15.08072938 0.07710847 17.7734375 0.09765625 C17.7734375 0.42765625 17.7734375 0.75765625 17.7734375 1.09765625 C17.14775879 1.11223877 16.52208008 1.12682129 15.87744141 1.1418457 C13.05047348 1.21618429 10.22470542 1.31288859 7.3984375 1.41015625 C6.41359375 1.43271484 5.42875 1.45527344 4.4140625 1.47851562 C3.47304687 1.51396484 2.53203125 1.54941406 1.5625 1.5859375 C0.69318848 1.61212158 -0.17612305 1.63830566 -1.07177734 1.6652832 C-3.61256277 1.91110843 -3.61256277 1.91110843 -5.2265625 5.09765625 C-5.8865625 5.09765625 -6.5465625 5.09765625 -7.2265625 5.09765625 C-7.2265625 3.77765625 -7.2265625 2.45765625 -7.2265625 1.09765625 C-4.66933021 -0.1809599 -2.85919148 -0.01570984 0 0 Z " fill="#EFEFEF" transform="translate(94.2265625,38.90234375)"/>
<path d="M0 0 C0.66 0.99 1.32 1.98 2 3 C4.30144109 4.07136051 6.6340213 5.07989717 9 6 C9 5.34 9 4.68 9 4 C9.66 4 10.32 4 11 4 C11.33 4.99 11.66 5.98 12 7 C6.78685613 8.04262877 6.78685613 8.04262877 4 8 C0.99295434 5.84109542 0.17077018 4.51231053 -1 1 C-0.67 0.67 -0.34 0.34 0 0 Z " fill="#7A7A7A" transform="translate(108,70)"/>
<path d="M0 0 C0.99 0 1.98 0 3 0 C3 3.63 3 7.26 3 11 C2.01 11 1.02 11 0 11 C0 7.37 0 3.74 0 0 Z " fill="#1A1A1A" transform="translate(50,20)"/>
<path d="M0 0 C0.99 0 1.98 0 3 0 C3 3.63 3 7.26 3 11 C1.68 10.34 0.36 9.68 -1 9 C-1.09765625 2.84765625 -1.09765625 2.84765625 -1 1 C-0.67 0.67 -0.34 0.34 0 0 Z " fill="#2E2E2E" transform="translate(25,19)"/>
<path d="M0 0 C4.83256305 0.41421969 6.82679218 2.46413986 10 6 C8.02 6.99 6.04 7.98 4 9 C3.67 6.69 3.34 4.38 3 2 C2.01 2 1.02 2 0 2 C0 1.34 0 0.68 0 0 Z " fill="#343434" transform="translate(87,108)"/>
<path d="M0 0 C1.32 0 2.64 0 4 0 C4 1.32 4 2.64 4 4 C3.34 4 2.68 4 2 4 C2 5.65 2 7.3 2 9 C1.67 7.68 1.34 6.36 1 5 C0.01 5.33 -0.98 5.66 -2 6 C-2.99 5.34 -3.98 4.68 -5 4 C-4.01 3.67 -3.02 3.34 -2 3 C-1.34 2.01 -0.68 1.02 0 0 Z " fill="#686868" transform="translate(117,97)"/>
<path d="M0 0 C0.90105469 0.00902344 1.80210938 0.01804687 2.73046875 0.02734375 C3.41753906 0.03894531 4.10460937 0.05054687 4.8125 0.0625 C4.8125 0.7225 4.8125 1.3825 4.8125 2.0625 C0.5225 2.7225 -3.7675 3.3825 -8.1875 4.0625 C-8.1875 3.0725 -8.1875 2.0825 -8.1875 1.0625 C-5.17259443 0.05753148 -3.14568308 -0.04085303 0 0 Z " fill="#4C4C4C" transform="translate(118.1875,67.9375)"/>
<path d="M0 0 C2.31 0 4.62 0 7 0 C7 0.99 7 1.98 7 3 C7.66 3 8.32 3 9 3 C9.33 4.65 9.66 6.3 10 8 C9.34 7.67 8.68 7.34 8 7 C8 6.01 8 5.02 8 4 C6.02 4 4.04 4 2 4 C1.34 2.68 0.68 1.36 0 0 Z " fill="#D9D9D9" transform="translate(115,40)"/>
<path d="M0 0 C1.91015625 0.23046875 1.91015625 0.23046875 3.91015625 2.23046875 C3.25015625 2.23046875 2.59015625 2.23046875 1.91015625 2.23046875 C1.58015625 2.89046875 1.25015625 3.55046875 0.91015625 4.23046875 C-1.56484375 3.24046875 -1.56484375 3.24046875 -4.08984375 2.23046875 C-4.41984375 5.20046875 -4.74984375 8.17046875 -5.08984375 11.23046875 C-5.41984375 11.23046875 -5.74984375 11.23046875 -6.08984375 11.23046875 C-6.21484375 4.48046875 -6.21484375 4.48046875 -5.08984375 2.23046875 C-5.74984375 1.90046875 -6.40984375 1.57046875 -7.08984375 1.23046875 C-5.19495423 -0.66442077 -2.51845229 0.05027763 0 0 Z " fill="#6F6F6F" transform="translate(33.08984375,16.76953125)"/>
<path d="M0 0 C0.66 0.33 1.32 0.66 2 1 C1.67 1.66 1.34 2.32 1 3 C1.89363605 5.60931266 1.89363605 5.60931266 3 8 C5.31 8.33 7.62 8.66 10 9 C10 9.33 10 9.66 10 10 C6.7 10 3.4 10 0 10 C-0.87890625 3.06640625 -0.87890625 3.06640625 -1 1 C-0.67 0.67 -0.34 0.34 0 0 Z " fill="#8F8F8F" transform="translate(107,69)"/>
<path d="M0 0 C-0.33 1.65 -0.66 3.3 -1 5 C-2.32 5 -3.64 5 -5 5 C-5 4.01 -5 3.02 -5 2 C-5.66 2 -6.32 2 -7 2 C-7.33 2.99 -7.66 3.98 -8 5 C-8 3.68 -8 2.36 -8 1 C-5.29120665 -0.35439668 -2.99066732 -0.06501451 0 0 Z " fill="#828282" transform="translate(100,25)"/>
<path d="M0 0 C0.33 0 0.66 0 1 0 C1.66 2.31 2.32 4.62 3 7 C3.66 6.67 4.32 6.34 5 6 C3.375 11.75 3.375 11.75 0 14 C-0.33 13.01 -0.66 12.02 -1 11 C-0.34 11 0.32 11 1 11 C0.67 10.01 0.34 9.02 0 8 C-0.12781786 5.32605036 -0.04391871 2.67904143 0 0 Z " fill="#949494" transform="translate(125,75)"/>
<path d="M0 0 C2.97 0.33 5.94 0.66 9 1 C9 1.33 9 1.66 9 2 C6.69 2 4.38 2 2 2 C2.33 3.65 2.66 5.3 3 7 C2.01 7.33 1.02 7.66 0 8 C0 7.01 0 6.02 0 5 C-0.99 4.67 -1.98 4.34 -3 4 C-2.34 4 -1.68 4 -1 4 C-0.67 2.68 -0.34 1.36 0 0 Z " fill="#A4A4A4" transform="translate(110,79)"/>
<path d="M0 0 C4.54805635 -0.17835515 7.8794254 0.00214565 12 2 C12 2.33 12 2.66 12 3 C8.04 3 4.08 3 0 3 C0 2.01 0 1.02 0 0 Z " fill="#424242" transform="translate(85,67)"/>
<path d="M0 0 C2.97 0 5.94 0 9 0 C9.33 1.65 9.66 3.3 10 5 C7.36 4.67 4.72 4.34 2 4 C2 4.66 2 5.32 2 6 C1.34 6 0.68 6 0 6 C0.33 5.01 0.66 4.02 1 3 C3.31 3 5.62 3 8 3 C8 2.34 8 1.68 8 1 C5.36 1 2.72 1 0 1 C0 0.67 0 0.34 0 0 Z " fill="#6F6F6F" transform="translate(115,67)"/>
<path d="M0 0 C3.1875 0.875 3.1875 0.875 6 2 C5.67 2.66 5.34 3.32 5 4 C2.67843403 4.40729228 0.3431213 4.74438677 -2 5 C-2.33 4.01 -2.66 3.02 -3 2 C-2.01 1.34 -1.02 0.68 0 0 Z " fill="#282828" transform="translate(89,52)"/>
<path d="M0 0 C0.99 0.495 0.99 0.495 2 1 C2 3.64 2 6.28 2 9 C2.66 9 3.32 9 4 9 C4 7.35 4 5.7 4 4 C4.33 4 4.66 4 5 4 C5 6.64 5 9.28 5 12 C4.01 12.33 3.02 12.66 2 13 C0.71553081 10.43106162 0.67022856 8.23423663 0.4375 5.375 C0.35371094 4.37210937 0.26992187 3.36921875 0.18359375 2.3359375 C0.12300781 1.56507812 0.06242187 0.79421875 0 0 Z " fill="#797979" transform="translate(126,67)"/>
<path d="M0 0 C0.33 0 0.66 0 1 0 C0.67 3.63 0.34 7.26 0 11 C-0.66 11 -1.32 11 -2 11 C-2.33 7.7 -2.66 4.4 -3 1 C-2.01 1.495 -2.01 1.495 -1 2 C-0.67 1.34 -0.34 0.68 0 0 Z " fill="#3E3E3E" transform="translate(131,60)"/>
<path d="M0 0 C1.2077558 3.62326739 0.54311128 4.64146369 -1 8 C-1.33 7.01 -1.66 6.02 -2 5 C-3.32 5 -4.64 5 -6 5 C-6 4.01 -6 3.02 -6 2 C-4.02 1.34 -2.04 0.68 0 0 Z " fill="#343434" transform="translate(106,122)"/>
<path d="M0 0 C-0.99 0.495 -0.99 0.495 -2 1 C-2 1.66 -2 2.32 -2 3 C-3.98 3.33 -5.96 3.66 -8 4 C-8 3.34 -8 2.68 -8 2 C-9.98 2 -11.96 2 -14 2 C-14 1.67 -14 1.34 -14 1 C-4.58997722 -0.14806378 -4.58997722 -0.14806378 0 0 Z " fill="#535353" transform="translate(115,102)"/>
<path d="M0 0 C1.2684375 0.12375 1.2684375 0.12375 2.5625 0.25 C3.2225 1.24 3.8825 2.23 4.5625 3.25 C3.2425 2.92 1.9225 2.59 0.5625 2.25 C0.5625 3.24 0.5625 4.23 0.5625 5.25 C-0.7575 4.92 -2.0775 4.59 -3.4375 4.25 C-3.4375 0.3525641 -3.4375 0.3525641 0 0 Z " fill="#565656" transform="translate(90.4375,97.75)"/>
<path d="M0 0 C2.31 0 4.62 0 7 0 C7.33 1.32 7.66 2.64 8 4 C6.02 4 4.04 4 2 4 C2 3.01 2 2.02 2 1 C1.34 0.67 0.68 0.34 0 0 Z " fill="#7E7E7E" transform="translate(108,89)"/>
<path d="M0 0 C2.5 1.375 2.5 1.375 5 3 C5 3.66 5 4.32 5 5 C5.99 5.33 6.98 5.66 8 6 C6.35 6.66 4.7 7.32 3 8 C3 7.01 3 6.02 3 5 C2.01 4.67 1.02 4.34 0 4 C0 2.68 0 1.36 0 0 Z " fill="#676767" transform="translate(83,92)"/>
<path d="M0 0 C1.125 3.75 1.125 3.75 0 6 C-1.98 6 -3.96 6 -6 6 C-4 4 -2 2 0 0 Z " fill="#6A6A6A" transform="translate(66,26)"/>
<path d="M0 0 C1.98 0 3.96 0 6 0 C6.33 1.32 6.66 2.64 7 4 C4.36 4 1.72 4 -1 4 C-0.67 2.68 -0.34 1.36 0 0 Z " fill="#747474" transform="translate(28,28)"/>
<path d="M0 0 C0.66 0 1.32 0 2 0 C2 0.66 2 1.32 2 2 C3.32 2 4.64 2 6 2 C6 2.99 6 3.98 6 5 C4.02 5 2.04 5 0 5 C0 3.35 0 1.7 0 0 Z " fill="#C8C8C8" transform="translate(149,20)"/>
<path d="M0 0 C0.33 0.99 0.66 1.98 1 3 C2.98 2.67 4.96 2.34 7 2 C7 2.99 7 3.98 7 5 C4.69 5.33 2.38 5.66 0 6 C0 4.02 0 2.04 0 0 Z " fill="#D9D9D9" transform="translate(93,20)"/>
<path d="M0 0 C2.1519437 3.22791555 2.20086443 4.28400809 2 8 C0.35 8.33 -1.3 8.66 -3 9 C-2.67 8.01 -2.34 7.02 -2 6 C-1.67 6 -1.34 6 -1 6 C-0.67 4.02 -0.34 2.04 0 0 Z " fill="#737373" transform="translate(100,69)"/>
<path d="M0 0 C2.64 0 5.28 0 8 0 C7.67 1.65 7.34 3.3 7 5 C6.67 4.01 6.34 3.02 6 2 C4.02 2.33 2.04 2.66 0 3 C0 2.01 0 1.02 0 0 Z " fill="#686868" transform="translate(94,20)"/>
<path d="M0 0 C0.66 0 1.32 0 2 0 C1.67 2.31 1.34 4.62 1 7 C0.01 7.33 -0.98 7.66 -2 8 C-2.66 7.34 -3.32 6.68 -4 6 C-2.68 5.67 -1.36 5.34 0 5 C0 3.35 0 1.7 0 0 Z " fill="#282828" transform="translate(119,101)"/>
<path d="M0 0 C1.4540625 0.0309375 1.4540625 0.0309375 2.9375 0.0625 C1.6175 1.3825 0.2975 2.7025 -1.0625 4.0625 C-1.7225 3.7325 -2.3825 3.4025 -3.0625 3.0625 C-3.7225 4.0525 -4.3825 5.0425 -5.0625 6.0625 C-3.98897059 0.08140756 -3.98897059 0.08140756 0 0 Z " fill="#606060" transform="translate(63.0625,19.9375)"/>
<path d="M0 0 C3.3 0 6.6 0 10 0 C10 0.33 10 0.66 10 1 C4.555 2.485 4.555 2.485 -1 4 C-0.67 2.68 -0.34 1.36 0 0 Z " fill="#5B5B5B" transform="translate(162,20)"/>
<path d="M0 0 C0.66 0.99 1.32 1.98 2 3 C1 4 1 4 -2.5625 4.0625 C-3.696875 4.041875 -4.83125 4.02125 -6 4 C-5.67 3.01 -5.34 2.02 -5 1 C-3.35 0.67 -1.7 0.34 0 0 Z " fill="#646464" transform="translate(66,32)"/>
<path d="M0 0 C0.66 0 1.32 0 2 0 C2 1.32 2 2.64 2 4 C3.65 3.67 5.3 3.34 7 3 C7 3.66 7 4.32 7 5 C4.69 5 2.38 5 0 5 C-0.5625 3.0625 -0.5625 3.0625 -1 1 C-0.67 0.67 -0.34 0.34 0 0 Z " fill="#2A2A2A" transform="translate(149,26)"/>
<path d="M0 0 C1.98 0 3.96 0 6 0 C5.67 0.99 5.34 1.98 5 3 C3.02 3 1.04 3 -1 3 C-0.67 2.01 -0.34 1.02 0 0 Z " fill="#696969" transform="translate(93,89)"/>
<path d="M0 0 C0.33 0 0.66 0 1 0 C2 6.625 2 6.625 2 10 C1.01 9.67 0.02 9.34 -1 9 C-0.67 6.03 -0.34 3.06 0 0 Z " fill="#4D4D4D" transform="translate(77,57)"/>
<path d="M0 0 C1.98 0 3.96 0 6 0 C6 0.33 6 0.66 6 1 C4.35 1 2.7 1 1 1 C0.67 2.65 0.34 4.3 0 6 C-0.99 6 -1.98 6 -3 6 C-2 4 -1 2 0 0 Z " fill="#676767" transform="translate(87,44)"/>
<path d="M0 0 C-0.33 0.99 -0.66 1.98 -1 3 C-3.875 3.125 -3.875 3.125 -7 3 C-7.66 2.34 -8.32 1.68 -9 1 C-6.04335481 -0.4783226 -3.25770263 -0.06032783 0 0 Z " fill="#6D6D6D" transform="translate(186,29)"/>
<path d="M0 0 C2.31 0 4.62 0 7 0 C7 0.99 7 1.98 7 3 C6.01 3 5.02 3 4 3 C4 2.34 4 1.68 4 1 C3.34 1 2.68 1 2 1 C2 1.66 2 2.32 2 3 C1.01 2.67 0.02 2.34 -1 2 C-0.67 1.34 -0.34 0.68 0 0 Z " fill="#5E5E5E" transform="translate(115,73)"/>
<path d="M0 0 C1.98 0 3.96 0 6 0 C6.33 1.32 6.66 2.64 7 4 C6.01 4.495 6.01 4.495 5 5 C5 4.01 5 3.02 5 2 C3.35 2 1.7 2 0 2 C0 1.34 0 0.68 0 0 Z " fill="#7B7B7B" transform="translate(117,71)"/>
<path d="M0 0 C0.99 0.33 1.98 0.66 3 1 C3 2.98 3 4.96 3 7 C2.01 6.34 1.02 5.68 0 5 C-0.1875 2.375 -0.1875 2.375 0 0 Z " fill="#232323" transform="translate(78,59)"/>
<path d="M0 0 C0.66 0 1.32 0 2 0 C2 0.66 2 1.32 2 2 C3.32 2.33 4.64 2.66 6 3 C3.36 3.33 0.72 3.66 -2 4 C-1.34 2.68 -0.68 1.36 0 0 Z " fill="#C5C5C5" transform="translate(91,40)"/>
</svg>
