<?xml version="1.0" encoding="UTF-8"?>
<svg version="1.1" xmlns="http://www.w3.org/2000/svg" width="229" height="150">
<path d="M0 0 C75.57 0 151.14 0 229 0 C229 49.5 229 99 229 150 C153.43 150 77.86 150 0 150 C0 100.5 0 51 0 0 Z " fill="#FDFDFD" transform="translate(0,0)"/>
<path d="M0 0 C1.53333984 0.00676758 1.53333984 0.00676758 3.09765625 0.01367188 C5.60683194 0.025397 8.1158849 0.04180824 10.625 0.0625 C10.625 0.7225 10.625 1.3825 10.625 2.0625 C11.924375 1.9078125 11.924375 1.9078125 13.25 1.75 C17.90738905 2.18123973 19.31289149 3.82741727 22.625 7.0625 C23.12 8.0525 23.12 8.0525 23.625 9.0625 C25.64169827 10.19600534 25.64169827 10.19600534 27.625 11.0625 C27.625 12.0525 27.625 13.0425 27.625 14.0625 C28.615 14.0625 29.605 14.0625 30.625 14.0625 C30.48457123 15.70880328 30.33750671 17.35454179 30.1875 19 C30.06568359 20.37478516 30.06568359 20.37478516 29.94140625 21.77734375 C29.625 24.0625 29.625 24.0625 28.625 25.0625 C28.39018307 27.24542774 28.21136677 29.43453174 28.0625 31.625 C27.93681641 33.42130859 27.93681641 33.42130859 27.80859375 35.25390625 C27.74800781 36.18074219 27.68742187 37.10757813 27.625 38.0625 C26.965 38.0625 26.305 38.0625 25.625 38.0625 C25.1609375 39.5165625 25.1609375 39.5165625 24.6875 41 C23.625 44.0625 23.625 44.0625 22.625 45.0625 C22.09571924 47.37532351 21.66166285 49.69971913 21.22265625 52.03125 C21.02542969 52.7015625 20.82820313 53.371875 20.625 54.0625 C19.635 54.5575 19.635 54.5575 18.625 55.0625 C18.21499565 59.96183371 18.21499565 59.96183371 20.0625 64.375 C23.68255712 66.75894005 27.38932354 67.3746551 31.625 68.0625 C31.625 68.7225 31.625 69.3825 31.625 70.0625 C32.22828125 70.08828125 32.8315625 70.1140625 33.453125 70.140625 C34.65195313 70.22570312 34.65195313 70.22570312 35.875 70.3125 C36.66390625 70.35890625 37.4528125 70.4053125 38.265625 70.453125 C40.625 71.0625 40.625 71.0625 44.625 75.0625 C44.625 79.3525 44.625 83.6425 44.625 88.0625 C14.595 88.0625 -15.435 88.0625 -46.375 88.0625 C-46.375 82.1225 -46.375 76.1825 -46.375 70.0625 C-35.875 67.0625 -35.875 67.0625 -31.375 67.0625 C-31.375 66.4025 -31.375 65.7425 -31.375 65.0625 C-30.385 65.0625 -29.395 65.0625 -28.375 65.0625 C-28.375 64.4025 -28.375 63.7425 -28.375 63.0625 C-25.735 62.4025 -23.095 61.7425 -20.375 61.0625 C-20.07392693 55.94425775 -20.54543826 53.30684262 -23.375 49.0625 C-23.375 48.0725 -23.375 47.0825 -23.375 46.0625 C-24.035 46.0625 -24.695 46.0625 -25.375 46.0625 C-25.91407293 42.41912609 -26.42786003 38.7725979 -26.9375 35.125 C-27.08896484 34.10341797 -27.24042969 33.08183594 -27.39648438 32.02929688 C-28.36875094 24.95210073 -29.1680363 18.00717985 -26.125 11.3125 C-24.06921702 8.66935045 -21.77162503 6.3976731 -19.375 4.0625 C-18.715 3.0725 -18.055 2.0825 -17.375 1.0625 C-11.78719827 -0.51980631 -5.76191634 -0.04832575 0 0 Z " fill="#414141" transform="translate(104.375,42.9375)"/>
<path d="M0 0 C0.66 0.33 1.32 0.66 2 1 C2 1.99 2 2.98 2 4 C2.99 4 3.98 4 5 4 C4.85957123 5.64630328 4.71250671 7.29204179 4.5625 8.9375 C4.48128906 9.85402344 4.40007812 10.77054688 4.31640625 11.71484375 C4 14 4 14 3 15 C2.76518307 17.18292774 2.58636677 19.37203174 2.4375 21.5625 C2.35371094 22.76003906 2.26992187 23.95757812 2.18359375 25.19140625 C2.09271484 26.58166016 2.09271484 26.58166016 2 28 C1.34 28 0.68 28 0 28 C-0.309375 28.969375 -0.61875 29.93875 -0.9375 30.9375 C-2 34 -2 34 -3 35 C-3.52928076 37.31282351 -3.96333715 39.63721913 -4.40234375 41.96875 C-4.59957031 42.6390625 -4.79679687 43.309375 -5 44 C-5.99 44.495 -5.99 44.495 -7 45 C-7.33 45.99 -7.66 46.98 -8 48 C-8.99 48 -9.98 48 -11 48 C-11.061875 48.721875 -11.12375 49.44375 -11.1875 50.1875 C-12.26192665 53.90666917 -14.05732994 55.54777495 -17 58 C-17.99 58 -18.98 58 -20 58 C-20.268125 58.556875 -20.53625 59.11375 -20.8125 59.6875 C-22 62 -22 62 -23.5625 64.5 C-24.85173947 66.7421556 -25.53347928 68.48078813 -26 71 C-26.66 71 -27.32 71 -28 71 C-28.12117188 70.30132812 -28.24234375 69.60265625 -28.3671875 68.8828125 C-28.53476563 67.97273438 -28.70234375 67.06265625 -28.875 66.125 C-29.03742188 65.22007813 -29.19984375 64.31515625 -29.3671875 63.3828125 C-29.83044703 60.83494012 -29.83044703 60.83494012 -32 59 C-33.98723268 58.29618843 -35.98777953 57.6288189 -38 57 C-38.66 56.67 -39.32 56.34 -40 56 C-40 54.68 -40 53.36 -40 52 C-40.66 52 -41.32 52 -42 52 C-42 50.68 -42 49.36 -42 48 C-37.125 49.875 -37.125 49.875 -36 51 C-33.94276119 51.23839248 -31.87827763 51.41544464 -29.8125 51.5625 C-28.68457031 51.64628906 -27.55664062 51.73007813 -26.39453125 51.81640625 C-23.25422007 51.98625047 -20.1440162 52.03339623 -17 52 C-17 51.34 -17 50.68 -17 50 C-21.62 50 -26.24 50 -31 50 C-31 49.34 -31 48.68 -31 48 C-31.99 48 -32.98 48 -34 48 C-33.67 46.68 -33.34 45.36 -33 44 C-32.01 44 -31.02 44 -30 44 C-29.87625 42.783125 -29.7525 41.56625 -29.625 40.3125 C-29.21108694 36.93520941 -28.45426549 34.10243305 -27 31 C-28.32 31 -29.64 31 -31 31 C-30.67 32.32 -30.34 33.64 -30 35 C-34.67209049 36.43023178 -39.13103697 37.40380045 -44 38 C-44.66 33.71 -45.32 29.42 -46 25 C-37.585 24.505 -37.585 24.505 -29 24 C-29.33 21.36 -29.66 18.72 -30 16 C-32.31 15.34 -34.62 14.68 -37 14 C-37.33 12.02 -37.66 10.04 -38 8 C-37.01 7.67 -36.02 7.34 -35 7 C-35 6.34 -35 5.68 -35 5 C-24.58523922 2.78240835 -15.68264852 1.05462716 -6.0078125 6.453125 C-4 8 -4 8 -2.375 11.3125 C-1.9720949 15.27440017 -1.86039882 19.02136643 -2 23 C-1.34 23 -0.68 23 0 23 C0.1954384 20.10450497 0.38161395 17.20891002 0.5625 14.3125 C0.61857422 13.49587891 0.67464844 12.67925781 0.73242188 11.83789062 C0.98341571 7.70485877 1.11127743 4.04175718 0 0 Z " fill="#8C8C8C" transform="translate(130,53)"/>
<path d="M0 0 C19.14 0 38.28 0 58 0 C58.33 30.03 58.66 60.06 59 91 C58.67 91 58.34 91 58 91 C57.90912109 89.64455078 57.90912109 89.64455078 57.81640625 88.26171875 C57.73261719 87.08222656 57.64882812 85.90273437 57.5625 84.6875 C57.48128906 83.51574219 57.40007812 82.34398438 57.31640625 81.13671875 C57.1132629 77.97409042 57.1132629 77.97409042 56 75 C52.37 74.34 48.74 73.68 45 73 C45 72.34 45 71.68 45 71 C44.40832031 70.98582031 43.81664062 70.97164063 43.20703125 70.95703125 C38.9428995 70.69965299 36.51827024 70.35961608 32.9375 67.875 C30.55066314 64.33324208 30.58943648 62.18774791 31 58 C31.99 57.67 32.98 57.34 34 57 C34.03867188 56.14728516 34.03867188 56.14728516 34.078125 55.27734375 C34.50434233 49.47497597 35.79821783 45.8543149 39 41 C39.66 41 40.32 41 41 41 C40.98839844 40.07316406 40.97679687 39.14632812 40.96484375 38.19140625 C40.95582031 36.99386719 40.94679687 35.79632813 40.9375 34.5625 C40.92589844 33.36753906 40.91429687 32.17257813 40.90234375 30.94140625 C41 28 41 28 42 27 C42.3931648 25.32115762 42.74085452 23.63149955 43.0625 21.9375 C43.23910156 21.01839844 43.41570312 20.09929688 43.59765625 19.15234375 C43.73042969 18.44207031 43.86320312 17.73179688 44 17 C43.01 17 42.02 17 41 17 C40.505 15.515 40.505 15.515 40 14 C39.401875 13.71125 38.80375 13.4225 38.1875 13.125 C36 12 36 12 34.25 9.5 C31.10675838 6.00750931 28.56367216 5.83667323 24 5 C24 4.34 24 3.68 24 3 C15.42 3.33 6.84 3.66 -2 4 C-1.34 2.68 -0.68 1.36 0 0 Z " fill="#E1E1E1" transform="translate(91,40)"/>
<path d="M0 0 C9.57 0 19.14 0 29 0 C29 7.06735014 28.54147136 7.35039837 24 12 C23.01 12.495 23.01 12.495 22 13 C17.67620142 21.0070344 18.78447334 29.98358028 20.54296875 38.6875 C21.22900466 42.15872442 21.05987148 45.46758287 21 49 C21.66 49 22.32 49 23 49 C23.474375 50.134375 23.94875 51.26875 24.4375 52.4375 C25.63622083 55.75740166 25.63622083 55.75740166 27 57 C27.25 60.4375 27.25 60.4375 27 64 C23.5647952 66.29013653 22.014669 66.17842973 18 66 C18 66.66 18 67.32 18 68 C17.01 68 16.02 68 15 68 C15 68.66 15 69.32 15 70 C13.44033782 70.508783 11.87710759 71.00663469 10.3125 71.5 C9.44238281 71.7784375 8.57226562 72.056875 7.67578125 72.34375 C5 73 5 73 0 73 C0 48.91 0 24.82 0 0 Z " fill="#D3D3D3" transform="translate(58,40)"/>
<path d="M0 0 C1.53333984 0.00676758 1.53333984 0.00676758 3.09765625 0.01367188 C5.60683194 0.025397 8.1158849 0.04180824 10.625 0.0625 C10.625 0.7225 10.625 1.3825 10.625 2.0625 C11.924375 1.9078125 11.924375 1.9078125 13.25 1.75 C18.744216 2.2587237 21.4716194 5.75325715 24.9375 9.6875 C28.47093579 14.6604837 28.12234338 20.02221829 27.17578125 25.80859375 C26.69050413 28.23497933 26.17849674 30.65083563 25.625 33.0625 C24.965 33.0625 24.305 33.0625 23.625 33.0625 C23.39713542 31.01171875 23.16927083 28.9609375 22.94140625 26.91015625 C22.80613386 25.05109771 22.80613386 25.05109771 21.625 24.0625 C21.58419217 22.06291636 21.58245644 20.06204746 21.625 18.0625 C20.66787109 17.75505859 20.66787109 17.75505859 19.69140625 17.44140625 C18.45197266 17.03728516 18.45197266 17.03728516 17.1875 16.625 C16.36378906 16.35816406 15.54007813 16.09132813 14.69140625 15.81640625 C12.625 15.0625 12.625 15.0625 11.625 14.0625 C4.61869232 13.57234679 -2.41265056 14.32126128 -9.375 15.0625 C-9.375 15.7225 -9.375 16.3825 -9.375 17.0625 C-10.035 17.3925 -10.695 17.7225 -11.375 18.0625 C-11.375 20.0425 -11.375 22.0225 -11.375 24.0625 C-10.446875 23.959375 -9.51875 23.85625 -8.5625 23.75 C-5.375 24.0625 -5.375 24.0625 -3.5 26.25 C-2.34520279 29.13699302 -2.03368092 30.99062829 -2.375 34.0625 C-3.375 35.0625 -3.375 35.0625 -7.19140625 35.16015625 C-8.77346682 35.15348089 -10.35551159 35.14151875 -11.9375 35.125 C-12.74380859 35.12048828 -13.55011719 35.11597656 -14.38085938 35.11132812 C-16.37893756 35.09950518 -18.37697783 35.08156914 -20.375 35.0625 C-20.04757813 35.97257812 -19.72015625 36.88265625 -19.3828125 37.8203125 C-18.27311568 41.39026738 -18.22635107 44.34627679 -18.375 48.0625 C-14.085 47.0725 -9.795 46.0825 -5.375 45.0625 C-5.375 43.7425 -5.375 42.4225 -5.375 41.0625 C-4.055 41.0625 -2.735 41.0625 -1.375 41.0625 C-2.3125 50.28125 -2.3125 50.28125 -4.375 54.0625 C-5.86 54.5575 -5.86 54.5575 -7.375 55.0625 C-7.705 56.0525 -8.035 57.0425 -8.375 58.0625 C-6.89 58.5575 -6.89 58.5575 -5.375 59.0625 C-11.125 58.3125 -11.125 58.3125 -13.375 56.0625 C-15.48320797 56.3810177 -15.48320797 56.3810177 -17.375 57.0625 C-18.035 59.3725 -18.695 61.6825 -19.375 64.0625 C-22.015 64.0625 -24.655 64.0625 -27.375 64.0625 C-27.705 65.0525 -28.035 66.0425 -28.375 67.0625 C-29.365 67.0625 -30.355 67.0625 -31.375 67.0625 C-31.375 66.4025 -31.375 65.7425 -31.375 65.0625 C-30.385 65.0625 -29.395 65.0625 -28.375 65.0625 C-28.375 64.4025 -28.375 63.7425 -28.375 63.0625 C-25.735 62.4025 -23.095 61.7425 -20.375 61.0625 C-20.07392693 55.94425775 -20.54543826 53.30684262 -23.375 49.0625 C-23.375 48.0725 -23.375 47.0825 -23.375 46.0625 C-24.035 46.0625 -24.695 46.0625 -25.375 46.0625 C-25.91407293 42.41912609 -26.42786003 38.7725979 -26.9375 35.125 C-27.08896484 34.10341797 -27.24042969 33.08183594 -27.39648438 32.02929688 C-28.36875094 24.95210073 -29.1680363 18.00717985 -26.125 11.3125 C-24.06921702 8.66935045 -21.77162503 6.3976731 -19.375 4.0625 C-18.715 3.0725 -18.055 2.0825 -17.375 1.0625 C-11.78719827 -0.51980631 -5.76191634 -0.04832575 0 0 Z " fill="#6B6B6B" transform="translate(104.375,42.9375)"/>
<path d="M0 0 C1.53333984 0.00676758 1.53333984 0.00676758 3.09765625 0.01367188 C5.60683194 0.025397 8.1158849 0.04180824 10.625 0.0625 C10.625 0.7225 10.625 1.3825 10.625 2.0625 C11.924375 1.9078125 11.924375 1.9078125 13.25 1.75 C18.744216 2.2587237 21.4716194 5.75325715 24.9375 9.6875 C28.48869733 14.68548143 28.0935426 20.25124438 27.125 26.0625 C26.96 26.7225 26.795 27.3825 26.625 28.0625 C25.965 28.0625 25.305 28.0625 24.625 28.0625 C23.44928549 24.38839215 23.55133254 20.89320817 23.625 17.0625 C22.635 17.0625 21.645 17.0625 20.625 17.0625 C20.41875 16.44375 20.2125 15.825 20 15.1875 C18.74923547 12.8600422 18.74923547 12.8600422 16.125 11.8125 C7.93011063 10.05645228 1.07963063 11.26765843 -6.8828125 13.56005859 C-11.75123862 14.95299711 -16.33407596 15.70875094 -21.375 16.0625 C-21.354375 17.031875 -21.33375 18.00125 -21.3125 19 C-21.375 22.0625 -21.375 22.0625 -22.375 23.0625 C-22.74260731 25.39067964 -23.07741581 27.7243385 -23.375 30.0625 C-24.365 30.3925 -25.355 30.7225 -26.375 31.0625 C-26.375 28.4225 -26.375 25.7825 -26.375 23.0625 C-27.035 23.0625 -27.695 23.0625 -28.375 23.0625 C-27.82221516 14.31325023 -25.72187711 10.24663667 -19.375 4.0625 C-18.715 3.0725 -18.055 2.0825 -17.375 1.0625 C-11.78719827 -0.51980631 -5.76191634 -0.04832575 0 0 Z " fill="#333333" transform="translate(104.375,42.9375)"/>
<path d="M0 0 C0.33 0 0.66 0 1 0 C0.979375 1.2375 0.95875 2.475 0.9375 3.75 C1.09638921 5.97934846 1.09638921 5.97934846 2 8 C4.18679366 9.5042358 6.27186023 10.33905226 8.7734375 11.2109375 C11 12 11 12 14 14 C14 15.98 14 17.96 14 20 C8.06 20 2.12 20 -4 20 C-4 19.34 -4 18.68 -4 18 C-5.72880982 17.94550162 -7.45812712 17.90698312 -9.1875 17.875 C-10.15042969 17.85179688 -11.11335938 17.82859375 -12.10546875 17.8046875 C-15.14354281 18.00968575 -17.22113261 18.8137272 -20 20 C-20.99 20 -21.98 20 -23 20 C-23.33 20.99 -23.66 21.98 -24 23 C-24.99 23 -25.98 23 -27 23 C-27 19.37 -27 15.74 -27 12 C-17.22321429 8.91964286 -17.22321429 8.91964286 -12.9375 8.4375 C-11.968125 8.293125 -10.99875 8.14875 -10 8 C-9.67 7.34 -9.34 6.68 -9 6 C-6.35139573 5.40644386 -3.70802678 5.25790731 -1 5 C-0.67 3.35 -0.34 1.7 0 0 Z " fill="#222222" transform="translate(86,101)"/>
<path d="M0 0 C0.33 0 0.66 0 1 0 C1.33 2.97 1.66 5.94 2 9 C4.12364481 9.22609337 4.12364481 9.22609337 5.625 7.5 C6.07875 7.005 6.5325 6.51 7 6 C7.7734375 6.99 7.7734375 6.99 8.5625 8 C11.79995755 10.65637543 13.92552281 10.31342132 18 10 C18 9.34 18 8.68 18 8 C19.32 8.33 20.64 8.66 22 9 C22.33 7.02 22.66 5.04 23 3 C25.14809171 6.22213757 25.29386153 7.27775401 25 11 C24 12 24 12 20.18359375 12.09765625 C18.60153318 12.09098089 17.01948841 12.07901875 15.4375 12.0625 C14.63119141 12.05798828 13.82488281 12.05347656 12.99414062 12.04882812 C10.99606244 12.03700518 8.99802217 12.01906914 7 12 C7.32742187 12.91007812 7.65484375 13.82015625 7.9921875 14.7578125 C9.10188432 18.32776738 9.14864893 21.28377679 9 25 C13.29 24.01 17.58 23.02 22 22 C22 20.68 22 19.36 22 18 C23.32 18 24.64 18 26 18 C25.0625 27.21875 25.0625 27.21875 23 31 C22.01 31.33 21.02 31.66 20 32 C19.67 32.99 19.34 33.98 19 35 C20.485 35.495 20.485 35.495 22 36 C16.25 35.25 16.25 35.25 14 33 C11.89179203 33.3185177 11.89179203 33.3185177 10 34 C9.34 36.31 8.68 38.62 8 41 C5.36 41 2.72 41 0 41 C-0.33 41.99 -0.66 42.98 -1 44 C-1.99 44 -2.98 44 -4 44 C-4 43.34 -4 42.68 -4 42 C-3.01 42 -2.02 42 -1 42 C-1 41.34 -1 40.68 -1 40 C1.64 39.34 4.28 38.68 7 38 C7.30107307 32.88175775 6.82956174 30.24434262 4 26 C4 25.01 4 24.02 4 23 C3.34 23 2.68 23 2 23 C0.64290496 15.26940505 -0.31918373 7.85546636 0 0 Z " fill="#7A7A7A" transform="translate(77,66)"/>
<path d="M0 0 C2.7421504 2.18489247 4.01428584 3.71579052 4.4375 7.25 C2.51302498 9.17447502 -0.39188439 8.67743877 -2.9765625 8.91796875 C-5.53298206 9.24620993 -7.88573504 9.8434463 -10.375 10.5 C-16.4670112 11.82393314 -21.74120187 10.11041487 -27.5625 8.25 C-27.8925 6.27 -28.2225 4.29 -28.5625 2.25 C-27.5725 1.92 -26.5825 1.59 -25.5625 1.25 C-25.5625 0.59 -25.5625 -0.07 -25.5625 -0.75 C-6.74942855 -4.7558251 -6.74942855 -4.7558251 0 0 Z " fill="#ABABAB" transform="translate(120.5625,58.75)"/>
<path d="M0 0 C0.99 0 1.98 0 3 0 C3 1.65 3 3.3 3 5 C6.3 5 9.6 5 13 5 C13 4.34 13 3.68 13 3 C15.97 2.34 18.94 1.68 22 1 C22.66 3.31 23.32 5.62 24 8 C24.66 7.67 25.32 7.34 26 7 C24.125 12.875 24.125 12.875 23 14 C22.60851239 15.51165654 22.26027543 17.03469632 21.9375 18.5625 C21.76089844 19.38878906 21.58429688 20.21507813 21.40234375 21.06640625 C21.26957031 21.70449219 21.13679688 22.34257813 21 23 C20.34 22.01 19.68 21.02 19 20 C17.02 20.33 15.04 20.66 13 21 C13 19.35 13 17.7 13 16 C11.865625 15.87625 10.73125 15.7525 9.5625 15.625 C7.7990625 15.315625 7.7990625 15.315625 6 15 C5.67 14.34 5.34 13.68 5 13 C5.33 12.01 5.66 11.02 6 10 C4.02 10 2.04 10 0 10 C-1.4323356 7.1353288 -0.57861549 5.08594927 0 2 C0 1.34 0 0.68 0 0 Z " fill="#9F9F9F" transform="translate(104,74)"/>
<path d="M0 0 C1.32 0 2.64 0 4 0 C4 1.32 4 2.64 4 4 C3.34 4 2.68 4 2 4 C1.9071875 5.0828125 1.9071875 5.0828125 1.8125 6.1875 C0.73807335 9.90666917 -1.05732994 11.54777495 -4 14 C-4.99 14 -5.98 14 -7 14 C-7.268125 14.556875 -7.53625 15.11375 -7.8125 15.6875 C-9 18 -9 18 -10.5625 20.5 C-11.85173947 22.7421556 -12.53347928 24.48078813 -13 27 C-13.66 27 -14.32 27 -15 27 C-15.12117188 26.30132812 -15.24234375 25.60265625 -15.3671875 24.8828125 C-15.53476563 23.97273438 -15.70234375 23.06265625 -15.875 22.125 C-16.03742188 21.22007813 -16.19984375 20.31515625 -16.3671875 19.3828125 C-16.83044703 16.83494012 -16.83044703 16.83494012 -19 15 C-20.98723268 14.29618843 -22.98777953 13.6288189 -25 13 C-25.66 12.67 -26.32 12.34 -27 12 C-27 10.68 -27 9.36 -27 8 C-27.66 8 -28.32 8 -29 8 C-29 6.68 -29 5.36 -29 4 C-24.125 5.875 -24.125 5.875 -23 7 C-20.94276119 7.23839248 -18.87827763 7.41544464 -16.8125 7.5625 C-15.12060547 7.68818359 -15.12060547 7.68818359 -13.39453125 7.81640625 C-10.25422007 7.98625047 -7.1440162 8.03339623 -4 8 C-4.33 6.68 -4.66 5.36 -5 4 C-4.01 3.67 -3.02 3.34 -2 3 C-1.34 2.01 -0.68 1.02 0 0 Z " fill="#8D8D8D" transform="translate(117,97)"/>
<path d="M0 0 C4.21878192 -0.19622241 7.17010894 0.19769832 11 2 C11 1.34 11 0.68 11 0 C14.3 0 17.6 0 21 0 C21.05402274 2.10388569 21.09280256 4.20816714 21.125 6.3125 C21.14820313 7.48425781 21.17140625 8.65601563 21.1953125 9.86328125 C21 13 21 13 19 16 C15.875 16.1875 15.875 16.1875 13 16 C14.32 15.67 15.64 15.34 17 15 C17 14.01 17 13.02 17 12 C14.6739143 11.61936779 12.33944736 11.28730055 10 11 C9.67 11.33 9.34 11.66 9 12 C6.98035801 12.07244053 4.95832876 12.08377188 2.9375 12.0625 C1.83277344 12.05347656 0.72804687 12.04445313 -0.41015625 12.03515625 C-1.69212891 12.01775391 -1.69212891 12.01775391 -3 12 C-2.67 9.69 -2.34 7.38 -2 5 C-0.02 5 1.96 5 4 5 C4 4.01 4 3.02 4 2 C2.68 2 1.36 2 0 2 C0 1.34 0 0.68 0 0 Z " fill="#3E3E3E" transform="translate(151,20)"/>
<path d="M0 0 C0.66 0.33 1.32 0.66 2 1 C2 1.99 2 2.98 2 4 C2.99 4 3.98 4 5 4 C4.85957123 5.64630328 4.71250671 7.29204179 4.5625 8.9375 C4.48128906 9.85402344 4.40007812 10.77054688 4.31640625 11.71484375 C4 14 4 14 3 15 C2.76518307 17.18292774 2.58636677 19.37203174 2.4375 21.5625 C2.35371094 22.76003906 2.26992187 23.95757812 2.18359375 25.19140625 C2.09271484 26.58166016 2.09271484 26.58166016 2 28 C0.35 28.66 -1.3 29.32 -3 30 C-3.66 27.69 -4.32 25.38 -5 23 C-6.98 23 -8.96 23 -11 23 C-11 22.34 -11 21.68 -11 21 C-11.66 21 -12.32 21 -13 21 C-13 21.66 -13 22.32 -13 23 C-15.92879371 22.37240135 -18.36095629 21.41377341 -21 20 C-21 18.68 -21 17.36 -21 16 C-16.01770224 14.08373163 -11.27315333 13.4452885 -6 13 C-7.39759905 9.45481116 -7.39759905 9.45481116 -9 6 C-6.625 6.5625 -6.625 6.5625 -4 8 C-1.8736786 13.06267001 -1.81107385 17.61560473 -2 23 C-1.34 23 -0.68 23 0 23 C0.1954384 20.10450497 0.38161395 17.20891002 0.5625 14.3125 C0.61857422 13.49587891 0.67464844 12.67925781 0.73242188 11.83789062 C0.98341571 7.70485877 1.11127743 4.04175718 0 0 Z " fill="#858585" transform="translate(130,53)"/>
<path d="M0 0 C2.5 1.5625 2.5 1.5625 4 4 C4.25 7.75 4.25 7.75 4 11 C2.02 11.99 2.02 11.99 0 13 C0 13.66 0 14.32 0 15 C-7.35678392 15.48241206 -7.35678392 15.48241206 -10 13.5 C-11.50238217 9.74404458 -11.38567013 7.04953637 -11 3 C-8.88355448 -1.23289104 -4.17330147 -0.73893467 0 0 Z " fill="#444444" transform="translate(35,17)"/>
<path d="M0 0 C2.27057377 -0.05398987 4.54151288 -0.09278742 6.8125 -0.125 C8.07707031 -0.14820313 9.34164062 -0.17140625 10.64453125 -0.1953125 C14 0 14 0 17 2 C15.875 3.9375 15.875 3.9375 14 6 C10.8125 6.75 10.8125 6.75 8 7 C8 7.66 8 8.32 8 9 C8.99 9.33 9.98 9.66 11 10 C8.03 10 5.06 10 2 10 C1.67 10.66 1.34 11.32 1 12 C-1.32156597 12.40729228 -3.6568787 12.74438677 -6 13 C-6.99 11.68 -7.98 10.36 -9 9 C-7.8803014 7.99406757 -6.7540588 6.9954151 -5.625 6 C-4.99851562 5.443125 -4.37203125 4.88625 -3.7265625 4.3125 C-2 3 -2 3 0 3 C0 2.01 0 1.02 0 0 Z " fill="#1E1E1E" transform="translate(93,44)"/>
<path d="M0 0 C0.80308594 0.01417969 1.60617188 0.02835938 2.43359375 0.04296875 C3.64208984 0.05263672 3.64208984 0.05263672 4.875 0.0625 C6.87109375 0.23046875 6.87109375 0.23046875 7.87109375 1.23046875 C7.99678878 3.35266855 8.04686148 5.4795822 8.05859375 7.60546875 C8.07277344 8.76820312 8.08695313 9.9309375 8.1015625 11.12890625 C7.87109375 14.23046875 7.87109375 14.23046875 5.87109375 17.23046875 C2.24609375 17.41796875 2.24609375 17.41796875 -1.12890625 17.23046875 C-1.45890625 15.91046875 -1.78890625 14.59046875 -2.12890625 13.23046875 C-0.47890625 13.23046875 1.17109375 13.23046875 2.87109375 13.23046875 C1.69546875 13.07578125 1.69546875 13.07578125 0.49609375 12.91796875 C-2.12890625 12.23046875 -2.12890625 12.23046875 -4.12890625 9.23046875 C-4.37890625 5.66796875 -4.37890625 5.66796875 -4.12890625 2.23046875 C-2.12890625 0.23046875 -2.12890625 0.23046875 0 0 Z " fill="#505050" transform="translate(62.12890625,19.76953125)"/>
<path d="M0 0 C2.45840605 -0.02691685 4.91651882 -0.04679802 7.375 -0.0625 C8.07367188 -0.07087891 8.77234375 -0.07925781 9.4921875 -0.08789062 C14.7734375 -0.11328125 14.7734375 -0.11328125 17 1 C17 4.63 17 8.26 17 12 C15.68 12 14.36 12 13 12 C13 9.03 13 6.06 13 3 C12.34 3 11.68 3 11 3 C11 5.97 11 8.94 11 12 C9.35 12 7.7 12 6 12 C6 9.36 6 6.72 6 4 C5.34 4 4.68 4 4 4 C4 6.64 4 9.28 4 12 C2.68 12 1.36 12 0 12 C0 8.04 0 4.08 0 0 Z " fill="#676767" transform="translate(126,20)"/>
<path d="M0 0 C5.53657294 -0.42589023 9.89665983 1.094753 15 3 C15 4.65 15 6.3 15 8 C9.42531458 11.61601216 4.39432346 11.30720059 -2 11 C-2 10.34 -2 9.68 -2 9 C-2.99 9 -3.98 9 -5 9 C-4.67 7.68 -4.34 6.36 -4 5 C-3.01 5 -2.02 5 -1 5 C-0.67 3.35 -0.34 1.7 0 0 Z " fill="#A0A0A0" transform="translate(101,92)"/>
<path d="M0 0 C0.99 0 1.98 0 3 0 C3.268125 0.94875 3.53625 1.8975 3.8125 2.875 C4.74986588 6.25267273 4.74986588 6.25267273 8 8 C8 8.66 8 9.32 8 10 C7.01 10.33 6.02 10.66 5 11 C4.6278958 12.32303717 4.29369827 13.65737935 4 15 C3.01 15.495 3.01 15.495 2 16 C2 15.34 2 14.68 2 14 C0.02 14.33 -1.96 14.66 -4 15 C-4 15.66 -4 16.32 -4 17 C-6.65228812 18.07525194 -9.28368454 19.09456151 -12 20 C-10.94124926 16.59687262 -9.99097846 13.98646769 -8 11 C-7.34 11 -6.68 11 -6 11 C-5.9175 10.38125 -5.835 9.7625 -5.75 9.125 C-5.5025 8.42375 -5.255 7.7225 -5 7 C-4.34 6.690625 -3.68 6.38125 -3 6.0625 C-2.34 5.711875 -1.68 5.36125 -1 5 C-0.18828772 2.44480079 -0.18828772 2.44480079 0 0 Z " fill="#333333" transform="translate(119,101)"/>
<path d="M0 0 C1.8828125 0.71875 1.8828125 0.71875 4.8203125 2.46875 C5.7578125 4.65625 5.7578125 4.65625 5.8203125 6.46875 C6.8103125 6.46875 7.8003125 6.46875 8.8203125 6.46875 C9.15926906 8.19682318 9.49122775 9.92626974 9.8203125 11.65625 C10.0059375 12.61917969 10.1915625 13.58210938 10.3828125 14.57421875 C10.78908862 17.2621706 10.89964822 19.75646019 10.8203125 22.46875 C10.1603125 22.46875 9.5003125 22.46875 8.8203125 22.46875 C8.59244792 20.41796875 8.36458333 18.3671875 8.13671875 16.31640625 C8.00144636 14.45734771 8.00144636 14.45734771 6.8203125 13.46875 C6.77950467 11.46916636 6.77776894 9.46829746 6.8203125 7.46875 C6.18222656 7.26378906 5.54414062 7.05882812 4.88671875 6.84765625 C4.06042969 6.57824219 3.23414063 6.30882812 2.3828125 6.03125 C1.55910156 5.76441406 0.73539063 5.49757813 -0.11328125 5.22265625 C-2.1796875 4.46875 -2.1796875 4.46875 -3.1796875 3.46875 C-10.0407229 2.91544069 -16.39816707 3.86100951 -23.1171875 5.15625 C-24.37861572 5.37897583 -24.37861572 5.37897583 -25.66552734 5.60620117 C-30.67535082 6.59593605 -30.67535082 6.59593605 -34.24609375 10.11328125 C-34.70822266 11.27923828 -34.70822266 11.27923828 -35.1796875 12.46875 C-35.8396875 12.13875 -36.4996875 11.80875 -37.1796875 11.46875 C-36.8496875 9.48875 -36.5196875 7.50875 -36.1796875 5.46875 C-35.52371582 5.32252197 -34.86774414 5.17629395 -34.19189453 5.02563477 C-31.22888132 4.36353972 -28.26678127 3.69744581 -25.3046875 3.03125 C-24.27214844 2.80115234 -23.23960938 2.57105469 -22.17578125 2.33398438 C-21.18964844 2.11162109 -20.20351562 1.88925781 -19.1875 1.66015625 C-18.27629395 1.45592041 -17.36508789 1.25168457 -16.42626953 1.04125977 C-10.70044716 -0.41788536 -6.03853149 -1.47175678 0 0 Z " fill="#595959" transform="translate(119.1796875,53.53125)"/>
<path d="M0 0 C1.32 0 2.64 0 4 0 C3.0625 9.21875 3.0625 9.21875 1 13 C0.01 13.33 -0.98 13.66 -2 14 C-2.33 14.99 -2.66 15.98 -3 17 C-2.01 17.33 -1.02 17.66 0 18 C-2.875 17.75 -2.875 17.75 -6 17 C-7.375 14.9375 -7.375 14.9375 -8 13 C-8.99 13 -9.98 13 -11 13 C-11.33 11.02 -11.66 9.04 -12 7 C-8.04 6.01 -4.08 5.02 0 4 C0 2.68 0 1.36 0 0 Z " fill="#838383" transform="translate(99,84)"/>
<path d="M0 0 C3.91555309 -0.17797969 6.72551348 -0.27549064 10 2 C10.609375 4.1640625 10.609375 4.1640625 10.75 6.625 C10.80671875 7.44226563 10.8634375 8.25953125 10.921875 9.1015625 C10.96054688 10.04128906 10.96054688 10.04128906 11 11 C8.23547967 12.38226016 5.9538637 12.09525387 2.875 12.0625 C1.77929688 12.05347656 0.68359375 12.04445313 -0.4453125 12.03515625 C-1.70988281 12.01775391 -1.70988281 12.01775391 -3 12 C-2.67 9.69 -2.34 7.38 -2 5 C-0.02 5 1.96 5 4 5 C4 4.01 4 3.02 4 2 C2.68 2 1.36 2 0 2 C0 1.34 0 0.68 0 0 Z " fill="#8E8E8E" transform="translate(151,20)"/>
<path d="M0 0 C15.20491803 0.86885246 15.20491803 0.86885246 20 3 C23.12394018 7.61799853 22.38059809 13.71641145 21.5 19 C21.335 19.66 21.17 20.32 21 21 C20.34 21 19.68 21 19 21 C17.82428549 17.32589215 17.92633254 13.83070817 18 10 C17.01 10 16.02 10 15 10 C14.79375 9.38125 14.5875 8.7625 14.375 8.125 C12.45224112 5.15346355 10.33405473 4.86975341 7 4 C7 3.34 7 2.68 7 2 C4.69 2 2.38 2 0 2 C0 1.34 0 0.68 0 0 Z " fill="#1F1F1F" transform="translate(110,50)"/>
<path d="M0 0 C6.25 -0.48076923 6.25 -0.48076923 9.4375 1.5625 C11.5248128 4.81870797 11.2915423 7.20995016 11 11 C10.01 11.495 10.01 11.495 9 12 C8.01 11.67 7.02 11.34 6 11 C6 10.34 6 9.68 6 9 C5.236875 8.855625 4.47375 8.71125 3.6875 8.5625 C1 8 1 8 -2 7 C-2 6.34 -2 5.68 -2 5 C-3.65 5 -5.3 5 -7 5 C-7 4.34 -7 3.68 -7 3 C-4.03 3.495 -4.03 3.495 -1 4 C-0.67 2.68 -0.34 1.36 0 0 Z " fill="#2E2E2E" transform="translate(138,114)"/>
<path d="M0 0 C1.27875 -0.061875 2.5575 -0.12375 3.875 -0.1875 C4.95394531 -0.23970703 4.95394531 -0.23970703 6.0546875 -0.29296875 C6.69664063 -0.19628906 7.33859375 -0.09960938 8 0 C10.80163026 4.2024454 10.14489712 7.00104935 10 12 C6.37 12 2.74 12 -1 12 C-1.33 10.02 -1.66 8.04 -2 6 C0.70879335 4.64560332 3.00933268 4.93498549 6 5 C6 4.01 6 3.02 6 2 C4.02 2.33 2.04 2.66 0 3 C0 2.01 0 1.02 0 0 Z " fill="#3B3B3B" transform="translate(94,20)"/>
<path d="M0 0 C0 2.64 0 5.28 0 8 C-5.21153619 11.25721012 -8.18912837 11.28036155 -14 10 C-14.33 9.34 -14.66 8.68 -15 8 C-14.01 7.67 -13.02 7.34 -12 7 C-12.33 5.35 -12.66 3.7 -13 2 C-10.32838266 1.10946089 -8.15237539 0.722475 -5.375 0.4375 C-4.18003906 0.31181641 -4.18003906 0.31181641 -2.9609375 0.18359375 C-1.97636868 0.091413 -0.98887464 0 0 0 Z " fill="#BABABA" transform="translate(124,79)"/>
<path d="M0 0 C1.60875 -0.020625 3.2175 -0.04125 4.875 -0.0625 C5.77992187 -0.07410156 6.68484375 -0.08570312 7.6171875 -0.09765625 C10 0 10 0 12 1 C12 4.63 12 8.26 12 12 C10.68 12 9.36 12 8 12 C8 8.7 8 5.4 8 2 C7.01 2.33 6.02 2.66 5 3 C4.67 5.97 4.34 8.94 4 12 C2.68 12 1.36 12 0 12 C0 8.04 0 4.08 0 0 Z " fill="#414141" transform="translate(79,20)"/>
<path d="M0 0 C2 2 2 2 2 6 C-0.64 6 -3.28 6 -6 6 C-5.67 6.66 -5.34 7.32 -5 8 C-3.02 8 -1.04 8 1 8 C0.67 8.99 0.34 9.98 0 11 C-3.94727588 11.17942163 -6.5980513 11.09350689 -10 9 C-10 6.36 -10 3.72 -10 1 C-6.42894485 -1.33492068 -4.06144397 -1.05950712 0 0 Z " fill="#474747" transform="translate(185,21)"/>
<path d="M0 0 C2.12534659 0.14069196 4.25027529 0.28770921 6.375 0.4375 C8.15003906 0.55931641 8.15003906 0.55931641 9.9609375 0.68359375 C13 1 13 1 15 2 C15 4.31 15 6.62 15 9 C12.525 8.01 12.525 8.01 10 7 C10 7.66 10 8.32 10 9 C7.69 9.33 5.38 9.66 3 10 C2.67 8.35 2.34 6.7 2 5 C3.98 4.67 5.96 4.34 8 4 C5.36 3.67 2.72 3.34 0 3 C0 2.01 0 1.02 0 0 Z " fill="#535353" transform="translate(85,67)"/>
<path d="M0 0 C3.95819611 -0.08678303 7.91614934 -0.14031733 11.875 -0.1875 C13.00292969 -0.21263672 14.13085938 -0.23777344 15.29296875 -0.26367188 C16.36933594 -0.27333984 17.44570312 -0.28300781 18.5546875 -0.29296875 C20.04718018 -0.31653442 20.04718018 -0.31653442 21.56982422 -0.34057617 C22.37178223 -0.22818604 23.17374023 -0.1157959 24 0 C24.66 0.99 25.32 1.98 26 3 C29.06556598 3.73343428 29.06556598 3.73343428 32 4 C32 4.66 32 5.32 32 6 C29.36 5.67 26.72 5.34 24 5 C24 4.34 24 3.68 24 3 C15.42 3.33 6.84 3.66 -2 4 C-1.34 2.68 -0.68 1.36 0 0 Z " fill="#BABABA" transform="translate(91,40)"/>
<path d="M0 0 C2.90954979 3.17405432 3.62905133 6.07705421 4.375 10.1953125 C4.93180505 12.39127115 4.93180505 12.39127115 8 14 C8 14.66 8 15.32 8 16 C8.99 16.33 9.98 16.66 11 17 C10.38125 17.185625 9.7625 17.37125 9.125 17.5625 C5.94397134 19.71437233 5.80548053 22.37533763 5 26 C2.36 26 -0.28 26 -3 26 C-3.33 26.99 -3.66 27.98 -4 29 C-4.99 29 -5.98 29 -7 29 C-7 28.34 -7 27.68 -7 27 C-6.01 27 -5.02 27 -4 27 C-4 26.34 -4 25.68 -4 25 C-1.36 24.34 1.28 23.68 4 23 C4.29918239 17.91389929 3.90580996 15.18436634 1 11 C-0.28317892 7.15046324 -0.06643637 4.05261865 0 0 Z " fill="#727272" transform="translate(80,81)"/>
<path d="M0 0 C4.875 1.875 4.875 1.875 6 3 C8.69235776 3.23678716 11.36498156 3.42198025 14.0625 3.5625 C15.20041992 3.62727539 15.20041992 3.62727539 16.36132812 3.69335938 C18.24065438 3.79973633 20.12030244 3.90039934 22 4 C21.67 4.66 21.34 5.32 21 6 C18.890625 6.30859375 18.890625 6.30859375 16.25 6.4375 C11.96735329 6.75473309 9.65801008 7.74064083 6 10 C3.6875 9.1875 3.6875 9.1875 2 8 C2 6.68 2 5.36 2 4 C1.34 4 0.68 4 0 4 C0 2.68 0 1.36 0 0 Z " fill="#6E6E6E" transform="translate(88,101)"/>
<path d="M0 0 C-0.33 2.64 -0.66 5.28 -1 8 C-8.875 7.125 -8.875 7.125 -10 6 C-10.04080783 4.00041636 -10.04254356 1.99954746 -10 0 C-6.30458414 -0.95024979 -3.69541586 -0.95024979 0 0 Z " fill="#A4A4A4" transform="translate(97,80)"/>
<path d="M0 0 C0.89203125 0.00902344 1.7840625 0.01804687 2.703125 0.02734375 C3.37859375 0.03894531 4.0540625 0.05054687 4.75 0.0625 C4.75 0.7225 4.75 1.3825 4.75 2.0625 C3.615625 2.18625 2.48125 2.31 1.3125 2.4375 C-0.4509375 2.746875 -0.4509375 2.746875 -2.25 3.0625 C-2.58 3.7225 -2.91 4.3825 -3.25 5.0625 C-0.94 5.0625 1.37 5.0625 3.75 5.0625 C3.75 6.0525 3.75 7.0425 3.75 8.0625 C2.76 8.0625 1.77 8.0625 0.75 8.0625 C0.75 7.4025 0.75 6.7425 0.75 6.0625 C0.09 6.0625 -0.57 6.0625 -1.25 6.0625 C-1.25 6.7225 -1.25 7.3825 -1.25 8.0625 C-4.17879371 7.43490135 -6.61095629 6.47627341 -9.25 5.0625 C-9.25 3.7425 -9.25 2.4225 -9.25 1.0625 C-6.09493858 0.12630187 -3.28413498 -0.0432123 0 0 Z " fill="#555555" transform="translate(118.25,67.9375)"/>
<path d="M0 0 C1.32 0 2.64 0 4 0 C4 5.61 4 11.22 4 17 C2.68 17 1.36 17 0 17 C0 11.39 0 5.78 0 0 Z " fill="#404040" transform="translate(105,15)"/>
<path d="M0 0 C7.26 0 14.52 0 22 0 C22 0.66 22 1.32 22 2 C23.423125 1.938125 23.423125 1.938125 24.875 1.875 C28 2 28 2 30 4 C28.68 4 27.36 4 26 4 C25.67 4.99 25.34 5.98 25 7 C22.36 6.67 19.72 6.34 17 6 C17.33 4.68 17.66 3.36 18 2 C12.06 1.67 6.12 1.34 0 1 C0 0.67 0 0.34 0 0 Z " fill="#434343" transform="translate(93,43)"/>
<path d="M0 0 C4.875 0.875 4.875 0.875 6 2 C6.04092937 4.33297433 6.04241723 6.66705225 6 9 C4.0085944 9.38133299 2.00720923 9.71325582 0 10 C-0.33 9.67 -0.66 9.34 -1 9 C-0.91062197 7.47480724 -0.75462854 5.95318071 -0.5625 4.4375 C-0.46066406 3.61121094 -0.35882812 2.78492188 -0.25390625 1.93359375 C-0.17011719 1.29550781 -0.08632813 0.65742188 0 0 Z " fill="#ECECEC" transform="translate(29,19)"/>
<path d="M0 0 C0 0.99 0 1.98 0 3 C1.98 3 3.96 3 6 3 C6.33 2.01 6.66 1.02 7 0 C7 1.65 7 3.3 7 5 C9.97065509 4.65772428 9.97065509 4.65772428 13 4 C13.33 3.34 13.66 2.68 14 2 C14.26218749 5.14624993 14.24754367 6.61837017 12.5 9.3125 C12.005 9.869375 11.51 10.42625 11 11 C11 9.68 11 8.36 11 7 C9.35 7.33 7.7 7.66 6 8 C5.67 7.01 5.34 6.02 5 5 C1.97717357 3.96452953 1.97717357 3.96452953 -1.5625 3.3125 C-2.76003906 3.06113281 -3.95757812 2.80976562 -5.19140625 2.55078125 C-6.11824219 2.36902344 -7.04507813 2.18726562 -8 2 C-8 1.34 -8 0.68 -8 0 C-5.13822943 -1.43088528 -3.06624227 -0.59991697 0 0 Z " fill="#919191" transform="translate(110,90)"/>
<path d="M0 0 C0 1.32 0 2.64 0 4 C-0.66 4 -1.32 4 -2 4 C-2.061875 4.7425 -2.12375 5.485 -2.1875 6.25 C-3.25149912 9.85122777 -4.91370672 10.96756296 -8 13 C-8.66 13 -9.32 13 -10 13 C-9.835 12.4225 -9.67 11.845 -9.5 11.25 C-8.85537969 8.73335631 -8.85537969 8.73335631 -9 5 C-4.90909091 0 -4.90909091 0 0 0 Z " fill="#8B8B8B" transform="translate(121,97)"/>
<path d="M0 0 C0.66 0 1.32 0 2 0 C4.91380589 5.82761178 4.55232315 11.79070742 3 18 C2.34 18 1.68 18 1 18 C-0.17571451 14.32589215 -0.07366746 10.83070817 0 7 C-0.99 6.67 -1.98 6.34 -3 6 C-1.68 5.67 -0.36 5.34 1 5 C1 4.34 1 3.68 1 3 C0.34 2.67 -0.32 2.34 -1 2 C-0.67 1.34 -0.34 0.68 0 0 Z " fill="#333333" transform="translate(128,53)"/>
<path d="M0 0 C0.33 0.66 0.66 1.32 1 2 C2.98 2 4.96 2 7 2 C6.67 2.66 6.34 3.32 6 4 C4.35 4 2.7 4 1 4 C1 5.32 1 6.64 1 8 C4.63 8 8.26 8 12 8 C10 10 10 10 7.3984375 10.1953125 C6.40070313 10.17210938 5.40296875 10.14890625 4.375 10.125 C2.87066406 10.09792969 2.87066406 10.09792969 1.3359375 10.0703125 C0.56507812 10.04710938 -0.20578125 10.02390625 -1 10 C-1 9.34 -1 8.68 -1 8 C-1.99 8 -2.98 8 -4 8 C-3.67 6.68 -3.34 5.36 -3 4 C-2.01 4 -1.02 4 0 4 C0 2.68 0 1.36 0 0 Z " fill="#939393" transform="translate(100,93)"/>
<path d="M0 0 C2.64 0 5.28 0 8 0 C8 0.66 8 1.32 8 2 C7.01 2.33 6.02 2.66 5 3 C4.67 5.97 4.34 8.94 4 12 C2.68 12 1.36 12 0 12 C0 8.04 0 4.08 0 0 Z " fill="#3E3E3E" transform="translate(40,20)"/>
<path d="M0 0 C0.61875 0.33 1.2375 0.66 1.875 1 C3.91018344 2.14193235 3.91018344 2.14193235 6 2 C5.67 2.99 5.34 3.98 5 5 C3.35 5.33 1.7 5.66 0 6 C0 6.66 0 7.32 0 8 C-2.65228812 9.07525194 -5.28368454 10.09456151 -8 11 C-6.6402082 5.43721535 -6.6402082 5.43721535 -3.4375 3.25 C-2.2309375 2.63125 -2.2309375 2.63125 -1 2 C-0.67 1.34 -0.34 0.68 0 0 Z " fill="#252525" transform="translate(115,110)"/>
<path d="M0 0 C6.15234375 -0.09765625 6.15234375 -0.09765625 8 0 C9 1 9 1 9.09765625 3.06640625 C9.08605469 3.89011719 9.07445312 4.71382812 9.0625 5.5625 C9.05347656 6.38878906 9.04445312 7.21507812 9.03515625 8.06640625 C9.02355469 8.70449219 9.01195312 9.34257812 9 10 C8.34 10 7.68 10 7 10 C7 7.03 7 4.06 7 1 C5.68 1 4.36 1 3 1 C3 3.97 3 6.94 3 10 C2.01 10 1.02 10 0 10 C0 6.7 0 3.4 0 0 Z " fill="#111111" transform="translate(133,21)"/>
<path d="M0 0 C-0.34933594 0.45890625 -0.69867188 0.9178125 -1.05859375 1.390625 C-1.51363281 2.00421875 -1.96867187 2.6178125 -2.4375 3.25 C-2.88996094 3.85328125 -3.34242187 4.4565625 -3.80859375 5.078125 C-5.03900997 7.06292756 -5.56112668 8.71987655 -6 11 C-6.66 11 -7.32 11 -8 11 C-8.33 7.7 -8.66 4.4 -9 1 C-2.25 -1.125 -2.25 -1.125 0 0 Z " fill="#7F7F7F" transform="translate(110,113)"/>
<path d="M0 0 C0.33 0.66 0.66 1.32 1 2 C2.953125 1.93489583 4.90625 1.86979167 6.859375 1.8046875 C9 2 9 2 13 4 C9.7 4 6.4 4 3 4 C2.67 4.99 2.34 5.98 2 7 C1.01 6.34 0.02 5.68 -1 5 C-2.32 6.32 -3.64 7.64 -5 9 C-5.33 8.01 -5.66 7.02 -6 6 C-5.34 5.67 -4.68 5.34 -4 5 C-3.67 4.01 -3.34 3.02 -3 2 C-2.01 2 -1.02 2 0 2 C0 1.34 0 0.68 0 0 Z " fill="#676767" transform="translate(84,68)"/>
<path d="M0 0 C0.99 0.495 0.99 0.495 2 1 C1.34 1.66 0.68 2.32 0 3 C0 2.01 0 1.02 0 0 Z M-12 1 C-10.9790625 1.2165625 -10.9790625 1.2165625 -9.9375 1.4375 C-6.63726918 2.06945909 -3.32855574 2.54313941 0 3 C-0.33 3.66 -0.66 4.32 -1 5 C-4.0625 5.625 -4.0625 5.625 -7 6 C-7 6.66 -7 7.32 -7 8 C-6.01 8.33 -5.02 8.66 -4 9 C-5.65 9 -7.3 9 -9 9 C-8.67 7.68 -8.34 6.36 -8 5 C-9.32 5 -10.64 5 -12 5 C-12 3.68 -12 2.36 -12 1 Z " fill="#2A2A2A" transform="translate(108,45)"/>
<path d="M0 0 C0.99 0.495 0.99 0.495 2 1 C2 1.99 2 2.98 2 4 C2.99 4 3.98 4 5 4 C4.85957123 5.64630328 4.71250671 7.29204179 4.5625 8.9375 C4.48128906 9.85402344 4.40007812 10.77054688 4.31640625 11.71484375 C4 14 4 14 3 15 C2.76518307 17.18292774 2.58636677 19.37203174 2.4375 21.5625 C2.35371094 22.76003906 2.26992187 23.95757812 2.18359375 25.19140625 C2.12300781 26.11824219 2.06242188 27.04507813 2 28 C1.34 28 0.68 28 0 28 C0.03552979 27.3294458 0.07105957 26.6588916 0.10766602 25.96801758 C0.26571836 22.91647264 0.41420082 19.86453383 0.5625 16.8125 C0.61857422 15.75740234 0.67464844 14.70230469 0.73242188 13.61523438 C0.78076172 12.59365234 0.82910156 11.57207031 0.87890625 10.51953125 C0.9260376 9.58214111 0.97316895 8.64475098 1.02172852 7.67895508 C0.99989432 4.98697068 0.61586406 2.61483024 0 0 Z " fill="#ACACAC" transform="translate(130,53)"/>
<path d="M0 0 C1.98 0.99 1.98 0.99 4 2 C4 2.99 4 3.98 4 5 C4.99 5 5.98 5 7 5 C7.33895656 6.72807318 7.67091525 8.45751974 8 10.1875 C8.185625 11.15042969 8.37125 12.11335938 8.5625 13.10546875 C8.96877612 15.7934206 9.07933572 18.28771019 9 21 C8.34 21 7.68 21 7 21 C6.77213542 18.94921875 6.54427083 16.8984375 6.31640625 14.84765625 C6.18113386 12.98859771 6.18113386 12.98859771 5 12 C4.95919217 10.00041636 4.95745644 7.99954746 5 6 C2.525 5.01 2.525 5.01 0 4 C0 2.68 0 1.36 0 0 Z " fill="#4C4C4C" transform="translate(121,55)"/>
<path d="M0 0 C-2.87920084 1.22147914 -5.48615988 2.10234945 -8.5625 2.75 C-12.80499813 4.29272659 -13.88432352 6.10715528 -16 10 C-18 7 -18 7 -17.625 4.8125 C-17.41875 4.214375 -17.2125 3.61625 -17 3 C-16.34 3 -15.68 3 -15 3 C-15 2.34 -15 1.68 -15 1 C-13.25215171 0.63536268 -11.50159498 0.2836922 -9.75 -0.0625 C-8.28820312 -0.35833984 -8.28820312 -0.35833984 -6.796875 -0.66015625 C-4.131881 -0.98397535 -2.51128277 -0.85503199 0 0 Z " fill="#8E8E8E" transform="translate(110,57)"/>
<path d="M0 0 C1.32 0 2.64 0 4 0 C3.46930939 3.82097239 2.50298434 6.06171403 0 9 C-2.31 8.67 -4.62 8.34 -7 8 C-6.67 7.01 -6.34 6.02 -6 5 C-4.02 4.67 -2.04 4.34 0 4 C0 2.68 0 1.36 0 0 Z " fill="#757575" transform="translate(99,84)"/>
<path d="M0 0 C3.16717283 1.58358642 4.73268318 2.45263699 6.3125 5.6875 C6.539375 6.450625 6.76625 7.21375 7 8 C6 9 6 9 2.4375 9.0625 C1.303125 9.041875 0.16875 9.02125 -1 9 C-0.67 8.01 -0.34 7.02 0 6 C0.03920815 4.00038436 0.04443347 1.99950636 0 0 Z " fill="#969696" transform="translate(118,58)"/>
<path d="M0 0 C3.125 -0.1875 3.125 -0.1875 6 0 C6 0.99 6 1.98 6 3 C5.21625 3.2475 4.4325 3.495 3.625 3.75 C0.67682892 5.15389099 0.0975223 6.00675737 -1 9 C-1.99 8.67 -2.98 8.34 -4 8 C-2.87548273 5.0280615 -1.77706209 2.66559313 0 0 Z " fill="#282828" transform="translate(87,44)"/>
<path d="M0 0 C0.99 0.33 1.98 0.66 3 1 C3 3.64 3 6.28 3 9 C-0.3 9 -3.6 9 -7 9 C-7.33 7.68 -7.66 6.36 -8 5 C-7.01 4.67 -6.02 4.34 -5 4 C-5 5.32 -5 6.64 -5 8 C-3.68 7.67 -2.36 7.34 -1 7 C-0.67 4.69 -0.34 2.38 0 0 Z " fill="#191919" transform="translate(156,22)"/>
<path d="M0 0 C2.25 -0.3125 2.25 -0.3125 5 0 C7.3125 2.5 7.3125 2.5 9 5 C5.69653363 6.10115546 4.40145589 5.8854171 1.0625 5.1875 C0.20785156 5.01605469 -0.64679688 4.84460937 -1.52734375 4.66796875 C-3.89873501 4.02735594 -5.85368826 3.18022246 -8 2 C-5.69 2 -3.38 2 -1 2 C-0.67 1.34 -0.34 0.68 0 0 Z " fill="#383838" transform="translate(119,47)"/>
<path d="M0 0 C0.33 0 0.66 0 1 0 C1.05402274 2.10388569 1.09280256 4.20816714 1.125 6.3125 C1.14820312 7.48425781 1.17140625 8.65601563 1.1953125 9.86328125 C1 13 1 13 -1 16 C-4.625 16.1875 -4.625 16.1875 -8 16 C-8.33 14.68 -8.66 13.36 -9 12 C-6.33333333 12 -3.66666667 12 -1 12 C-0.67 8.04 -0.34 4.08 0 0 Z " fill="#929292" transform="translate(69,21)"/>
<path d="M0 0 C1.65 0 3.3 0 5 0 C5.08082094 1.95766281 5.13910778 3.91626728 5.1875 5.875 C5.22230469 6.96554688 5.25710937 8.05609375 5.29296875 9.1796875 C5.19628906 10.11039063 5.09960938 11.04109375 5 12 C4.01 12.66 3.02 13.32 2 14 C1.01569664 9.93974866 1 6.16370811 1 2 C0.67 1.34 0.34 0.68 0 0 Z " fill="#141414" transform="translate(167,21)"/>
<path d="M0 0 C1.32 0 2.64 0 4 0 C4 3.96 4 7.92 4 12 C3.01 12.495 3.01 12.495 2 13 C1.67 12.34 1.34 11.68 1 11 C-1.01669827 9.86649466 -1.01669827 9.86649466 -3 9 C-2.01 8.67 -1.02 8.34 0 8 C0 5.36 0 2.72 0 0 Z " fill="#151515" transform="translate(65,21)"/>
<path d="M0 0 C0.99 0 1.98 0 3 0 C3 4.62 3 9.24 3 14 C2.01 14 1.02 14 0 14 C0 9.38 0 4.76 0 0 Z " fill="#161616" transform="translate(120,17)"/>
<path d="M0 0 C0.99 0.33 1.98 0.66 3 1 C3 5.29 3 9.58 3 14 C2.01 14.33 1.02 14.66 0 15 C0 10 0 5 0 0 Z " fill="#343434" transform="translate(78,59)"/>
<path d="M0 0 C1.98 0 3.96 0 6 0 C6 0.33 6 0.66 6 1 C4.35 1 2.7 1 1 1 C1.33 2.98 1.66 4.96 2 7 C3.98 7.66 5.96 8.32 8 9 C7.67 9.66 7.34 10.32 7 11 C4.67843403 11.40729228 2.3431213 11.74438677 0 12 C0 8.04 0 4.08 0 0 Z " fill="#909090" transform="translate(86,79)"/>
<path d="M0 0 C0.66 0 1.32 0 2 0 C2 1.32 2 2.64 2 4 C2.93972656 4.29003906 2.93972656 4.29003906 3.8984375 4.5859375 C4.71570313 4.84632812 5.53296875 5.10671875 6.375 5.375 C7.18710938 5.63023438 7.99921875 5.88546875 8.8359375 6.1484375 C11 7 11 7 13 9 C13.4140625 11.1640625 13.4140625 11.1640625 13.625 13.625 C13.69976562 14.44226563 13.77453125 15.25953125 13.8515625 16.1015625 C13.92503906 17.04128906 13.92503906 17.04128906 14 18 C12.89236728 15.93241891 12.03745017 14.20674022 11.6171875 11.88671875 C11.15972029 9.85300146 11.15972029 9.85300146 9.2578125 8.76953125 C8.20207031 8.29580078 8.20207031 8.29580078 7.125 7.8125 C6.42632812 7.48894531 5.72765625 7.16539063 5.0078125 6.83203125 C3.36575287 6.15156685 1.68625397 5.56208466 0 5 C0 3.35 0 1.7 0 0 Z " fill="#505050" transform="translate(88,105)"/>
<path d="M0 0 C0.99 0.33 1.98 0.66 3 1 C2.01 1.495 2.01 1.495 1 2 C1 3.98 1 5.96 1 8 C2.98 8 4.96 8 7 8 C7.33 8.66 7.66 9.32 8 10 C2.28758534 9.61271765 -0.73688282 9.12989477 -5 5 C-3.35 3.35 -1.7 1.7 0 0 Z " fill="#787878" transform="translate(92,59)"/>
<path d="M0 0 C2.0625 0.4375 2.0625 0.4375 4 1 C4 3.31 4 5.62 4 8 C2.35 7.67 0.7 7.34 -1 7 C-1.04254356 5.00045254 -1.04080783 2.99958364 -1 1 C-0.67 0.67 -0.34 0.34 0 0 Z " fill="#C0C0C0" transform="translate(165,22)"/>
<path d="M0 0 C1.65 0.33 3.3 0.66 5 1 C5.33 1.99 5.66 2.98 6 4 C5.01 4.33 4.02 4.66 3 5 C2.6278958 6.32303717 2.29369827 7.65737935 2 9 C1.01 9.495 1.01 9.495 0 10 C-1.125 3.375 -1.125 3.375 0 0 Z " fill="#303030" transform="translate(121,107)"/>
<path d="M0 0 C0.99 0 1.98 0 3 0 C3 1.65 3 3.3 3 5 C3.99 5.33 4.98 5.66 6 6 C5.67 6.99 5.34 7.98 5 9 C3.35 9.33 1.7 9.66 0 10 C-1.4323356 7.1353288 -0.57861549 5.08594927 0 2 C0 1.34 0 0.68 0 0 Z " fill="#ADADAD" transform="translate(104,74)"/>
<path d="M0 0 C1.31677734 0.00966797 1.31677734 0.00966797 2.66015625 0.01953125 C4.9375 0.1875 4.9375 0.1875 6.9375 1.1875 C6.9375 2.5075 6.9375 3.8275 6.9375 5.1875 C6.31875 4.878125 5.7 4.56875 5.0625 4.25 C0.74947706 2.7835722 -3.5384996 2.52130974 -8.0625 2.1875 C-4.79122414 0.00664943 -3.78873277 -0.06137859 0 0 Z " fill="#6B6B6B" transform="translate(114.0625,53.8125)"/>
<path d="M0 0 C0.33 0 0.66 0 1 0 C1.05398987 2.27057377 1.09278742 4.54151288 1.125 6.8125 C1.14820313 8.07707031 1.17140625 9.34164063 1.1953125 10.64453125 C1 14 1 14 -1 17 C-2.9453125 17.29296875 -2.9453125 17.29296875 -5.125 17.1875 C-6.40375 17.125625 -7.6825 17.06375 -9 17 C-9.33 15.68 -9.66 14.36 -10 13 C-4.25 13.75 -4.25 13.75 -2 16 C-0.89485234 12.68455701 -0.67892369 9.79589889 -0.4375 6.3125 C-0.35371094 5.13300781 -0.26992187 3.95351563 -0.18359375 2.73828125 C-0.12300781 1.83464844 -0.06242188 0.93101563 0 0 Z " fill="#B0B0B0" transform="translate(172,20)"/>
<path d="M0 0 C2.64 0 5.28 0 8 0 C8.33 1.32 8.66 2.64 9 4 C6.03 4 3.06 4 0 4 C0 2.68 0 1.36 0 0 Z " fill="#B5B5B5" transform="translate(101,97)"/>
<path d="M0 0 C0 2.64 0 5.28 0 8 C-5.23420787 11.27137992 -8.16605611 11.10643764 -14 10 C-11.50557135 8.56090655 -9.84722957 7.98441118 -6.9375 7.6875 C-3.78163699 7.28518828 -3.78163699 7.28518828 -2.125 4.4375 C-1.75375 3.633125 -1.3825 2.82875 -1 2 C-1.66 1.67 -2.32 1.34 -3 1 C-1 0 -1 0 0 0 Z " fill="#AEAEAE" transform="translate(124,79)"/>
<path d="M0 0 C1.03125 0.00322266 2.0625 0.00644531 3.125 0.00976562 C4.74535156 0.02233398 4.74535156 0.02233398 6.3984375 0.03515625 C8.03039062 0.04192383 8.03039062 0.04192383 9.6953125 0.04882812 C12.38807539 0.06063849 15.08072938 0.07710847 17.7734375 0.09765625 C17.7734375 0.42765625 17.7734375 0.75765625 17.7734375 1.09765625 C17.14775879 1.11223877 16.52208008 1.12682129 15.87744141 1.1418457 C13.05047348 1.21618429 10.22470542 1.31288859 7.3984375 1.41015625 C6.41359375 1.43271484 5.42875 1.45527344 4.4140625 1.47851562 C3.47304687 1.51396484 2.53203125 1.54941406 1.5625 1.5859375 C0.69318848 1.61212158 -0.17612305 1.63830566 -1.07177734 1.6652832 C-3.61256277 1.91110843 -3.61256277 1.91110843 -5.2265625 5.09765625 C-5.8865625 5.09765625 -6.5465625 5.09765625 -7.2265625 5.09765625 C-7.2265625 3.77765625 -7.2265625 2.45765625 -7.2265625 1.09765625 C-4.66933021 -0.1809599 -2.85919148 -0.01570984 0 0 Z " fill="#EFEFEF" transform="translate(94.2265625,38.90234375)"/>
<path d="M0 0 C0.66 0.99 1.32 1.98 2 3 C4.30144109 4.07136051 6.6340213 5.07989717 9 6 C9 5.34 9 4.68 9 4 C9.66 4 10.32 4 11 4 C11.33 4.99 11.66 5.98 12 7 C6.78685613 8.04262877 6.78685613 8.04262877 4 8 C0.99295434 5.84109542 0.17077018 4.51231053 -1 1 C-0.67 0.67 -0.34 0.34 0 0 Z " fill="#7A7A7A" transform="translate(108,70)"/>
<path d="M0 0 C0.99 0 1.98 0 3 0 C3 3.63 3 7.26 3 11 C2.01 11 1.02 11 0 11 C0 7.37 0 3.74 0 0 Z " fill="#1A1A1A" transform="translate(50,20)"/>
<path d="M0 0 C0.99 0 1.98 0 3 0 C3 3.63 3 7.26 3 11 C1.68 10.34 0.36 9.68 -1 9 C-1.09765625 2.84765625 -1.09765625 2.84765625 -1 1 C-0.67 0.67 -0.34 0.34 0 0 Z " fill="#2E2E2E" transform="translate(25,19)"/>
<path d="M0 0 C0.99 0 1.98 0 3 0 C3 3.63 3 7.26 3 11 C2.01 11 1.02 11 0 11 C0 7.37 0 3.74 0 0 Z " fill="#1C1C1C" transform="translate(71,20)"/>
<path d="M0 0 C0.90105469 0.00902344 1.80210938 0.01804687 2.73046875 0.02734375 C3.41753906 0.03894531 4.10460937 0.05054687 4.8125 0.0625 C4.8125 0.7225 4.8125 1.3825 4.8125 2.0625 C0.5225 2.7225 -3.7675 3.3825 -8.1875 4.0625 C-8.1875 3.0725 -8.1875 2.0825 -8.1875 1.0625 C-5.17259443 0.05753148 -3.14568308 -0.04085303 0 0 Z " fill="#4C4C4C" transform="translate(118.1875,67.9375)"/>
<path d="M0 0 C2.31 0 4.62 0 7 0 C7 0.99 7 1.98 7 3 C7.66 3 8.32 3 9 3 C9.33 4.65 9.66 6.3 10 8 C9.34 7.67 8.68 7.34 8 7 C8 6.01 8 5.02 8 4 C6.02 4 4.04 4 2 4 C1.34 2.68 0.68 1.36 0 0 Z " fill="#D9D9D9" transform="translate(115,40)"/>
<path d="M0 0 C1.91015625 0.23046875 1.91015625 0.23046875 3.91015625 2.23046875 C3.25015625 2.23046875 2.59015625 2.23046875 1.91015625 2.23046875 C1.58015625 2.89046875 1.25015625 3.55046875 0.91015625 4.23046875 C-1.56484375 3.24046875 -1.56484375 3.24046875 -4.08984375 2.23046875 C-4.41984375 5.20046875 -4.74984375 8.17046875 -5.08984375 11.23046875 C-5.41984375 11.23046875 -5.74984375 11.23046875 -6.08984375 11.23046875 C-6.21484375 4.48046875 -6.21484375 4.48046875 -5.08984375 2.23046875 C-5.74984375 1.90046875 -6.40984375 1.57046875 -7.08984375 1.23046875 C-5.19495423 -0.66442077 -2.51845229 0.05027763 0 0 Z " fill="#6F6F6F" transform="translate(33.08984375,16.76953125)"/>
<path d="M0 0 C0.66 0.33 1.32 0.66 2 1 C1.67 1.66 1.34 2.32 1 3 C1.89363605 5.60931266 1.89363605 5.60931266 3 8 C5.31 8.33 7.62 8.66 10 9 C10 9.33 10 9.66 10 10 C6.7 10 3.4 10 0 10 C-0.87890625 3.06640625 -0.87890625 3.06640625 -1 1 C-0.67 0.67 -0.34 0.34 0 0 Z " fill="#8F8F8F" transform="translate(107,69)"/>
<path d="M0 0 C-0.33 1.65 -0.66 3.3 -1 5 C-2.32 5 -3.64 5 -5 5 C-5 4.01 -5 3.02 -5 2 C-5.66 2 -6.32 2 -7 2 C-7.33 2.99 -7.66 3.98 -8 5 C-8 3.68 -8 2.36 -8 1 C-5.29120665 -0.35439668 -2.99066732 -0.06501451 0 0 Z " fill="#828282" transform="translate(100,25)"/>
<path d="M0 0 C3.14608258 3.41965498 3.74940605 6.40577752 4 11 C3.01 12.485 3.01 12.485 2 14 C0.02905192 9.07262981 -0.1799928 5.21979128 0 0 Z " fill="#6F6F6F" transform="translate(80,81)"/>
<path d="M0 0 C0 1.32 0 2.64 0 4 C-0.66 4 -1.32 4 -2 4 C-2.33 4.66 -2.66 5.32 -3 6 C-5.97 5.505 -5.97 5.505 -9 5 C-4.5 0 -4.5 0 0 0 Z " fill="#6C6C6C" transform="translate(121,97)"/>
<path d="M0 0 C0.33 0 0.66 0 1 0 C1.66 2.31 2.32 4.62 3 7 C3.66 6.67 4.32 6.34 5 6 C3.375 11.75 3.375 11.75 0 14 C-0.33 13.01 -0.66 12.02 -1 11 C-0.34 11 0.32 11 1 11 C0.67 10.01 0.34 9.02 0 8 C-0.12781786 5.32605036 -0.04391871 2.67904143 0 0 Z " fill="#949494" transform="translate(125,75)"/>
<path d="M0 0 C2.97 0.33 5.94 0.66 9 1 C9 1.33 9 1.66 9 2 C6.69 2 4.38 2 2 2 C2.33 3.65 2.66 5.3 3 7 C2.01 7.33 1.02 7.66 0 8 C0 7.01 0 6.02 0 5 C-0.99 4.67 -1.98 4.34 -3 4 C-2.34 4 -1.68 4 -1 4 C-0.67 2.68 -0.34 1.36 0 0 Z " fill="#A4A4A4" transform="translate(110,79)"/>
<path d="M0 0 C4.54805635 -0.17835515 7.8794254 0.00214565 12 2 C12 2.33 12 2.66 12 3 C8.04 3 4.08 3 0 3 C0 2.01 0 1.02 0 0 Z " fill="#424242" transform="translate(85,67)"/>
<path d="M0 0 C1.32 0.33 2.64 0.66 4 1 C4 2.98 4 4.96 4 7 C2.68 7 1.36 7 0 7 C0 4.69 0 2.38 0 0 Z " fill="#D4D4D4" transform="translate(62,22)"/>
<path d="M0 0 C2.97 0 5.94 0 9 0 C9.33 1.65 9.66 3.3 10 5 C7.36 4.67 4.72 4.34 2 4 C2 4.66 2 5.32 2 6 C1.34 6 0.68 6 0 6 C0.33 5.01 0.66 4.02 1 3 C3.31 3 5.62 3 8 3 C8 2.34 8 1.68 8 1 C5.36 1 2.72 1 0 1 C0 0.67 0 0.34 0 0 Z " fill="#6F6F6F" transform="translate(115,67)"/>
<path d="M0 0 C3.1875 0.875 3.1875 0.875 6 2 C5.67 2.66 5.34 3.32 5 4 C2.67843403 4.40729228 0.3431213 4.74438677 -2 5 C-2.33 4.01 -2.66 3.02 -3 2 C-2.01 1.34 -1.02 0.68 0 0 Z " fill="#282828" transform="translate(89,52)"/>
<path d="M0 0 C0.99 0.495 0.99 0.495 2 1 C2 3.64 2 6.28 2 9 C2.66 9 3.32 9 4 9 C4 7.35 4 5.7 4 4 C4.33 4 4.66 4 5 4 C5 6.64 5 9.28 5 12 C4.01 12.33 3.02 12.66 2 13 C0.71553081 10.43106162 0.67022856 8.23423663 0.4375 5.375 C0.35371094 4.37210937 0.26992187 3.36921875 0.18359375 2.3359375 C0.12300781 1.56507812 0.06242187 0.79421875 0 0 Z " fill="#797979" transform="translate(126,67)"/>
<path d="M0 0 C0.33 0 0.66 0 1 0 C0.67 3.63 0.34 7.26 0 11 C-0.66 11 -1.32 11 -2 11 C-2.33 7.7 -2.66 4.4 -3 1 C-2.01 1.495 -2.01 1.495 -1 2 C-0.67 1.34 -0.34 0.68 0 0 Z " fill="#3E3E3E" transform="translate(131,60)"/>
<path d="M0 0 C-0.33 1.32 -0.66 2.64 -1 4 C-2.65 4 -4.3 4 -6 4 C-6 3.01 -6 2.02 -6 1 C-6.66 0.67 -7.32 0.34 -8 0 C-5.13822943 -1.43088528 -3.06624227 -0.59991697 0 0 Z " fill="#848484" transform="translate(185,21)"/>
<path d="M0 0 C1.2077558 3.62326739 0.54311128 4.64146369 -1 8 C-1.33 7.01 -1.66 6.02 -2 5 C-3.32 5 -4.64 5 -6 5 C-6 4.01 -6 3.02 -6 2 C-4.02 1.34 -2.04 0.68 0 0 Z " fill="#343434" transform="translate(106,122)"/>
<path d="M0 0 C2 3.75 2 3.75 2 6 C1.34 6 0.68 6 0 6 C-0.33 7.65 -0.66 9.3 -1 11 C-1.99 11.33 -2.98 11.66 -4 12 C-3.67 10.35 -3.34 8.7 -3 7 C-2.34 7 -1.68 7 -1 7 C-0.67 4.69 -0.34 2.38 0 0 Z " fill="#404040" transform="translate(121,101)"/>
<path d="M0 0 C2.31 0 4.62 0 7 0 C7.33 1.32 7.66 2.64 8 4 C6.02 4 4.04 4 2 4 C2 3.01 2 2.02 2 1 C1.34 0.67 0.68 0.34 0 0 Z " fill="#7E7E7E" transform="translate(108,89)"/>
<path d="M0 0 C0.33 0.99 0.66 1.98 1 3 C0 4 0 4 -1.84765625 4.09765625 C-3.8984375 4.06510417 -5.94921875 4.03255208 -8 4 C-8.33 4.99 -8.66 5.98 -9 7 C-9.99 7 -10.98 7 -12 7 C-12 6.34 -12 5.68 -12 5 C-11.01 5 -10.02 5 -9 5 C-9 4.34 -9 3.68 -9 3 C-8.43410156 2.86722656 -7.86820312 2.73445313 -7.28515625 2.59765625 C-6.18494141 2.33275391 -6.18494141 2.33275391 -5.0625 2.0625 C-4.33160156 1.88847656 -3.60070312 1.71445313 -2.84765625 1.53515625 C-1.00030102 1.16112431 -1.00030102 1.16112431 0 0 Z " fill="#5F5F5F" transform="translate(85,103)"/>
<path d="M0 0 C-0.99 0.495 -0.99 0.495 -2 1 C-2 1.66 -2 2.32 -2 3 C-5.96 2.67 -9.92 2.34 -14 2 C-14 1.67 -14 1.34 -14 1 C-4.58997722 -0.14806378 -4.58997722 -0.14806378 0 0 Z " fill="#515151" transform="translate(115,102)"/>
<path d="M0 0 C1.98 0 3.96 0 6 0 C6.33 1.32 6.66 2.64 7 4 C4.36 4 1.72 4 -1 4 C-0.67 2.68 -0.34 1.36 0 0 Z " fill="#747474" transform="translate(28,28)"/>
<path d="M0 0 C0.66 0 1.32 0 2 0 C2 0.66 2 1.32 2 2 C3.32 2 4.64 2 6 2 C6 2.99 6 3.98 6 5 C4.02 5 2.04 5 0 5 C0 3.35 0 1.7 0 0 Z " fill="#C8C8C8" transform="translate(149,20)"/>
<path d="M0 0 C0.33 0.99 0.66 1.98 1 3 C2.98 2.67 4.96 2.34 7 2 C7 2.99 7 3.98 7 5 C4.69 5.33 2.38 5.66 0 6 C0 4.02 0 2.04 0 0 Z " fill="#D9D9D9" transform="translate(93,20)"/>
<path d="M0 0 C2.67927341 4.01891012 2.15601248 6.24161923 2 11 C0.5 9.9375 0.5 9.9375 -1 8 C-1.25 4.375 -1.25 4.375 -1 1 C-0.67 0.67 -0.34 0.34 0 0 Z " fill="#CFCFCF" transform="translate(123,97)"/>
<path d="M0 0 C2.1519437 3.22791555 2.20086443 4.28400809 2 8 C0.35 8.33 -1.3 8.66 -3 9 C-2.67 8.01 -2.34 7.02 -2 6 C-1.67 6 -1.34 6 -1 6 C-0.67 4.02 -0.34 2.04 0 0 Z " fill="#737373" transform="translate(100,69)"/>
<path d="M0 0 C2.64 0 5.28 0 8 0 C7.67 1.65 7.34 3.3 7 5 C6.67 4.01 6.34 3.02 6 2 C4.02 2.33 2.04 2.66 0 3 C0 2.01 0 1.02 0 0 Z " fill="#686868" transform="translate(94,20)"/>
<path d="M0 0 C3.3 0 6.6 0 10 0 C10 0.33 10 0.66 10 1 C4.555 2.485 4.555 2.485 -1 4 C-0.67 2.68 -0.34 1.36 0 0 Z " fill="#5B5B5B" transform="translate(162,20)"/>
<path d="M0 0 C0.66 0.99 1.32 1.98 2 3 C1 4 1 4 -2.5625 4.0625 C-3.696875 4.041875 -4.83125 4.02125 -6 4 C-5.67 3.01 -5.34 2.02 -5 1 C-3.35 0.67 -1.7 0.34 0 0 Z " fill="#646464" transform="translate(66,32)"/>
<path d="M0 0 C0.66 0 1.32 0 2 0 C2 1.32 2 2.64 2 4 C3.65 3.67 5.3 3.34 7 3 C7 3.66 7 4.32 7 5 C4.69 5 2.38 5 0 5 C-0.5625 3.0625 -0.5625 3.0625 -1 1 C-0.67 0.67 -0.34 0.34 0 0 Z " fill="#2A2A2A" transform="translate(149,26)"/>
<path d="M0 0 C1.98 0 3.96 0 6 0 C5.67 0.99 5.34 1.98 5 3 C3.02 3 1.04 3 -1 3 C-0.67 2.01 -0.34 1.02 0 0 Z " fill="#696969" transform="translate(93,89)"/>
<path d="M0 0 C0.33 0 0.66 0 1 0 C2 6.625 2 6.625 2 10 C1.01 9.67 0.02 9.34 -1 9 C-0.67 6.03 -0.34 3.06 0 0 Z " fill="#4D4D4D" transform="translate(77,57)"/>
<path d="M0 0 C1.98 0 3.96 0 6 0 C6 0.33 6 0.66 6 1 C4.35 1 2.7 1 1 1 C0.67 2.65 0.34 4.3 0 6 C-0.99 6 -1.98 6 -3 6 C-2 4 -1 2 0 0 Z " fill="#676767" transform="translate(87,44)"/>
<path d="M0 0 C-0.33 0.99 -0.66 1.98 -1 3 C-3.875 3.125 -3.875 3.125 -7 3 C-7.66 2.34 -8.32 1.68 -9 1 C-6.04335481 -0.4783226 -3.25770263 -0.06032783 0 0 Z " fill="#6D6D6D" transform="translate(186,29)"/>
<path d="M0 0 C0.66 0 1.32 0 2 0 C1.67 2.31 1.34 4.62 1 7 C-0.32 6.34 -1.64 5.68 -3 5 C-2.34 5 -1.68 5 -1 5 C-0.67 3.35 -0.34 1.7 0 0 Z " fill="#2D2D2D" transform="translate(119,101)"/>
<path d="M0 0 C2.31 0 4.62 0 7 0 C7 0.99 7 1.98 7 3 C6.01 3 5.02 3 4 3 C4 2.34 4 1.68 4 1 C3.34 1 2.68 1 2 1 C2 1.66 2 2.32 2 3 C1.01 2.67 0.02 2.34 -1 2 C-0.67 1.34 -0.34 0.68 0 0 Z " fill="#5E5E5E" transform="translate(115,73)"/>
<path d="M0 0 C1.98 0 3.96 0 6 0 C6.33 1.32 6.66 2.64 7 4 C6.01 4.495 6.01 4.495 5 5 C5 4.01 5 3.02 5 2 C3.35 2 1.7 2 0 2 C0 1.34 0 0.68 0 0 Z " fill="#7B7B7B" transform="translate(117,71)"/>
<path d="M0 0 C0.99 0.33 1.98 0.66 3 1 C3 2.98 3 4.96 3 7 C2.01 6.34 1.02 5.68 0 5 C-0.1875 2.375 -0.1875 2.375 0 0 Z " fill="#232323" transform="translate(78,59)"/>
<path d="M0 0 C0.66 0 1.32 0 2 0 C2 0.66 2 1.32 2 2 C3.32 2.33 4.64 2.66 6 3 C3.36 3.33 0.72 3.66 -2 4 C-1.34 2.68 -0.68 1.36 0 0 Z " fill="#C5C5C5" transform="translate(91,40)"/>
</svg>
